<?xml version="1.0" encoding="UTF-8"?>
<!DOCTYPE svg PUBLIC "-//W3C//DTD SVG 1.1//EN" "http://www.w3.org/Graphics/SVG/1.1/DTD/svg11.dtd">
<svg xmlns="http://www.w3.org/2000/svg" version="1.1" width="762px" height="743px" style="shape-rendering:geometricPrecision; text-rendering:geometricPrecision; image-rendering:optimizeQuality; fill-rule:evenodd; clip-rule:evenodd" xmlns:xlink="http://www.w3.org/1999/xlink">
<g><path style="opacity:1" fill="#ce3944" d="M 606.5,96.5 C 609.425,101.714 611.258,107.381 612,113.5C 614.987,114.276 615.82,115.943 614.5,118.5C 615.1,122.04 616.934,124.707 620,126.5C 620.333,129.167 620.667,131.833 621,134.5C 622.707,138.122 624.207,141.789 625.5,145.5C 621.997,145.129 618.997,146.129 616.5,148.5C 613.62,149.642 610.62,150.642 607.5,151.5C 605.348,149.838 603.682,147.838 602.5,145.5C 602.306,143.088 600.973,142.088 598.5,142.5C 595.813,142.336 593.146,142.503 590.5,143C 588.35,144.411 586.016,145.245 583.5,145.5C 576.935,146.578 574.768,143.911 577,137.5C 580.882,132.832 584.215,127.832 587,122.5C 588.435,116.31 591.269,110.976 595.5,106.5C 596.046,104.865 596.38,103.199 596.5,101.5C 600.562,101.276 603.395,99.2759 605,95.5C 605.383,96.056 605.883,96.3893 606.5,96.5 Z"/></g>
<g><path style="opacity:0.997" fill="#d79a56" d="M 335.5,289.5 C 334.833,289.5 334.167,289.5 333.5,289.5C 333.703,287.61 333.037,286.11 331.5,285C 333.721,283.331 334.055,281.331 332.5,279C 333.167,277.667 333.833,276.333 334.5,275C 334.348,270.457 334.348,265.957 334.5,261.5C 336.683,257.884 336.683,254.384 334.5,251C 336.053,246.167 337.553,241.334 339,236.5C 339.333,232.5 339.667,228.5 340,224.5C 341.744,223.351 341.911,222.017 340.5,220.5C 342.324,212.725 344.324,204.725 346.5,196.5C 348.842,196.775 348.842,197.608 346.5,199C 348.935,201.72 351.935,203.053 355.5,203C 353.639,201.972 352.305,200.472 351.5,198.5C 352.747,196.677 353.414,194.677 353.5,192.5C 354.822,192.33 355.989,192.663 357,193.5C 358.141,190.528 360.308,188.861 363.5,188.5C 364.731,189.651 364.731,190.817 363.5,192C 365.09,193.046 366.59,194.213 368,195.5C 370.131,193.456 372.631,192.623 375.5,193C 375.623,195.211 375.623,197.378 375.5,199.5C 376.249,197.988 377.416,196.988 379,196.5C 384.899,197.921 386.066,196.088 382.5,191C 378.286,188.711 374.286,186.878 370.5,185.5C 370.977,184.522 371.643,183.689 372.5,183C 369.833,182 369.833,181 372.5,180C 370.185,178.632 370.185,177.799 372.5,177.5C 374.305,178.472 375.972,179.639 377.5,181C 374.931,182.878 375.264,184.378 378.5,185.5C 381.028,184.502 381.028,183.669 378.5,183C 379.448,182.517 380.448,182.351 381.5,182.5C 381.833,179.5 380.5,178.167 377.5,178.5C 379.564,175.891 381.564,173.058 383.5,170C 384,169.833 384.5,169.667 385,169.5C 386.136,170.783 387.469,171.783 389,172.5C 390.741,169.876 392.908,167.543 395.5,165.5C 397.409,166.348 399.409,166.682 401.5,166.5C 401.367,162.782 402.867,161.782 406,163.5C 410.43,162.024 414.763,161.024 419,160.5C 420.226,160.645 421.393,160.978 422.5,161.5C 425.358,158.723 426.524,159.057 426,162.5C 427.067,163.191 428.234,163.691 429.5,164C 428.167,165.667 428.167,167.333 429.5,169C 428.975,169.692 428.308,170.192 427.5,170.5C 426.264,169.754 424.93,169.421 423.5,169.5C 423.657,170.873 423.49,172.207 423,173.5C 421.445,171.485 419.611,171.152 417.5,172.5C 420.076,173.513 422.242,174.847 424,176.5C 427.068,175.186 430.235,174.186 433.5,173.5C 433.17,176.102 433.67,178.769 435,181.5C 435.654,180.304 436.154,180.304 436.5,181.5C 433.798,183.347 430.798,184.513 427.5,185C 426.594,186.699 426.261,188.533 426.5,190.5C 428.167,190.5 429.833,190.5 431.5,190.5C 431.343,189.127 431.51,187.793 432,186.5C 434.423,188.994 436.756,188.994 439,186.5C 439.492,187.549 439.326,188.549 438.5,189.5C 440.044,190.622 441.377,190.289 442.5,188.5C 444.701,190.056 444.701,191.223 442.5,192C 443.126,192.75 443.626,193.584 444,194.5C 445.527,192.779 446.527,190.779 447,188.5C 447.925,189.047 448.758,189.713 449.5,190.5C 450.034,192.614 451.034,194.448 452.5,196C 449.354,196.11 448.354,197.443 449.5,200C 447.852,203.835 446.519,207.835 445.5,212C 448.45,212.627 451.117,213.127 453.5,213.5C 451.034,214.123 448.701,214.957 446.5,216C 448.134,216.494 449.801,216.66 451.5,216.5C 451.657,217.873 451.49,219.207 451,220.5C 450.586,220.043 450.086,219.709 449.5,219.5C 446.226,220.47 443.226,221.97 440.5,224C 443.242,225.055 445.575,226.055 447.5,227C 446.027,229.608 446.527,231.775 449,233.5C 451.071,232.333 452.571,232.999 453.5,235.5C 454.489,233.412 454.156,231.412 452.5,229.5C 454.562,228.239 456.228,228.739 457.5,231C 456.549,231.718 456.383,232.551 457,233.5C 458.385,232.449 459.385,231.116 460,229.5C 460.725,231.158 461.892,231.658 463.5,231C 460.545,227.72 460.879,224.886 464.5,222.5C 465.731,223.651 465.731,224.817 464.5,226C 466.556,226.311 468.556,226.811 470.5,227.5C 471.281,226.271 471.781,224.938 472,223.5C 473.017,225.376 473.851,227.376 474.5,229.5C 477.619,228.306 477.952,226.806 475.5,225C 476.819,223.372 478.152,223.539 479.5,225.5C 480.246,226.736 480.579,228.07 480.5,229.5C 474.744,231.881 469.411,235.048 464.5,239C 463.207,239.49 461.873,239.657 460.5,239.5C 460.5,241.5 460.5,243.5 460.5,245.5C 463.972,245.874 466.972,244.874 469.5,242.5C 469.974,243.779 471.307,244.945 473.5,246C 468.585,246.828 464.585,249.161 461.5,253C 464.332,254.908 463.999,255.741 460.5,255.5C 459.652,261.328 456.985,262.161 452.5,258C 453.279,255.372 454.279,252.706 455.5,250C 454.99,248.174 454.156,248.007 453,249.5C 452.667,248.833 452.333,248.167 452,247.5C 451.667,248.833 451.333,250.167 451,251.5C 450.517,250.552 450.351,249.552 450.5,248.5C 448.027,248.736 446.36,250.069 445.5,252.5C 449.311,253.738 449.311,254.404 445.5,254.5C 445.33,255.822 445.663,256.989 446.5,258C 444.833,258.333 443.167,258.667 441.5,259C 443.615,259.424 444.448,260.591 444,262.5C 442.301,261.594 440.467,261.261 438.5,261.5C 438.863,259.089 437.863,257.589 435.5,257C 436.816,255.022 436.316,253.522 434,252.5C 433.503,250.19 433.337,247.857 433.5,245.5C 431.304,245.41 429.137,245.077 427,244.5C 425.113,244.969 423.613,245.969 422.5,247.5C 420.38,246.128 419.38,246.795 419.5,249.5C 416.552,249.223 413.719,249.556 411,250.5C 410.405,246.918 409.071,246.584 407,249.5C 406.282,248.549 405.449,248.383 404.5,249C 407.538,250.85 409.538,253.35 410.5,256.5C 414.339,256.612 414.339,257.279 410.5,258.5C 408.803,257.636 407.637,256.303 407,254.5C 405.601,255.227 404.101,255.727 402.5,256C 404.923,256.732 406.09,258.232 406,260.5C 403.555,259.094 401.055,257.76 398.5,256.5C 397.41,257.391 397.41,258.391 398.5,259.5C 395.324,260.997 392.658,260.33 390.5,257.5C 389.261,259.007 389.595,260.174 391.5,261C 390.159,262.295 388.826,262.795 387.5,262.5C 388.727,263.59 389.56,264.924 390,266.5C 393.111,267.961 396.277,268.294 399.5,267.5C 400.244,268.991 400.91,270.491 401.5,272C 399.609,272.309 398.275,271.475 397.5,269.5C 395.729,270.035 395.396,270.869 396.5,272C 394.413,271.782 392.413,271.949 390.5,272.5C 392.482,273.216 394.149,274.383 395.5,276C 393.837,276.265 392.337,275.765 391,274.5C 390.381,277.577 388.881,280.077 386.5,282C 386.735,282.873 387.069,283.707 387.5,284.5C 384.348,285.372 381.514,285.372 379,284.5C 376.534,282.328 374.368,279.828 372.5,277C 370.22,276.788 368.22,275.955 366.5,274.5C 365.948,276.003 365.948,277.669 366.5,279.5C 367.5,279.5 368.5,279.5 369.5,279.5C 369.649,280.552 369.483,281.552 369,282.5C 366.175,280.812 363.009,279.979 359.5,280C 360.865,278.318 362.365,278.151 364,279.5C 364.315,278.092 363.982,276.759 363,275.5C 361.333,276.167 359.667,276.833 358,277.5C 357.808,279.577 357.308,281.577 356.5,283.5C 352.534,281.679 349.201,282.346 346.5,285.5C 345.281,284.737 344.281,283.737 343.5,282.5C 342.139,284.028 340.972,285.695 340,287.5C 339.667,287.167 339.333,286.833 339,286.5C 337.271,286.974 336.105,287.974 335.5,289.5 Z"/></g>
<g><path style="opacity:1" fill="#d69754" d="M 606.5,96.5 C 605.883,96.3893 605.383,96.056 605,95.5C 603.395,99.2759 600.562,101.276 596.5,101.5C 596.38,103.199 596.046,104.865 595.5,106.5C 591.269,110.976 588.435,116.31 587,122.5C 584.215,127.832 580.882,132.832 577,137.5C 574.768,143.911 576.935,146.578 583.5,145.5C 586.211,146.123 588.877,146.123 591.5,145.5C 594.345,145.234 596.678,144.234 598.5,142.5C 600.973,142.088 602.306,143.088 602.5,145.5C 601.51,148.151 600.51,150.817 599.5,153.5C 598.833,153.167 598.167,152.833 597.5,152.5C 597.031,156.035 595.531,159.035 593,161.5C 592.5,160.333 591.667,159.5 590.5,159C 592.645,158.257 592.811,157.424 591,156.5C 588.898,156.637 586.732,156.97 584.5,157.5C 585.304,159.764 584.637,161.764 582.5,163.5C 583.246,164.736 583.579,166.07 583.5,167.5C 581.692,167.491 580.025,167.991 578.5,169C 578.06,170.964 577.226,173.13 576,175.5C 574.921,177.394 573.587,177.727 572,176.5C 570.015,178.46 567.848,178.293 565.5,176C 568.582,174.128 571.249,171.795 573.5,169C 571.775,165.226 568.775,163.726 564.5,164.5C 564.5,166.167 564.5,167.833 564.5,169.5C 561.763,168.787 559.096,168.787 556.5,169.5C 556.5,167.5 556.5,165.5 556.5,163.5C 554.883,163.331 553.216,162.997 551.5,162.5C 549.364,161.528 548.197,159.861 548,157.5C 546.513,158.253 546.346,159.086 547.5,160C 546.451,160.492 545.451,160.326 544.5,159.5C 543.24,161.353 543.24,163.186 544.5,165C 540.67,165.97 536.67,167.303 532.5,169C 534.285,170.163 536.285,170.83 538.5,171C 538.043,171.414 537.709,171.914 537.5,172.5C 539,172.833 540.5,173.167 542,173.5C 545.176,172.927 548.343,172.76 551.5,173C 552.833,174 552.833,175 551.5,176C 553.405,176.826 553.739,177.993 552.5,179.5C 551.522,179.023 550.689,178.357 550,177.5C 549.316,179.479 549.816,181.146 551.5,182.5C 551,182.833 550.5,183.167 550,183.5C 548.192,182.31 546.359,182.31 544.5,183.5C 542.726,183.113 541.059,182.447 539.5,181.5C 538.614,182.325 538.281,183.325 538.5,184.5C 541.893,184.062 544.893,184.895 547.5,187C 544.833,187.333 542.167,187.667 539.5,188C 541.618,188.26 543.284,189.26 544.5,191C 542.299,192.043 539.966,192.877 537.5,193.5C 537.833,193.833 538.167,194.167 538.5,194.5C 541.833,193.833 545.167,193.167 548.5,192.5C 549.551,193.885 550.884,194.885 552.5,195.5C 553.386,196.325 553.719,197.325 553.5,198.5C 557.39,198.647 560.89,198.647 564,198.5C 565.771,199.304 567.271,200.471 568.5,202C 567.376,202.249 566.376,202.749 565.5,203.5C 566.651,204.731 567.817,204.731 569,203.5C 569.483,204.448 569.649,205.448 569.5,206.5C 564.9,206.345 564.567,207.012 568.5,208.5C 569.647,208.182 570.481,207.516 571,206.5C 573.132,207.78 575.298,207.78 577.5,206.5C 579.041,208.204 580.375,210.037 581.5,212C 581.167,212.5 580.833,213 580.5,213.5C 579.332,210.531 577.999,210.198 576.5,212.5C 578.124,213.869 578.624,215.536 578,217.5C 575.915,216.353 574.415,217.02 573.5,219.5C 574.247,219.736 575.08,220.07 576,220.5C 576.667,221.5 576.667,222.5 576,223.5C 574.127,224.089 572.46,223.422 571,221.5C 570.667,222.167 570.333,222.833 570,223.5C 566.165,222.117 562.998,222.95 560.5,226C 561,226.5 561.5,227 562,227.5C 563.183,226.269 564.349,226.269 565.5,227.5C 564.535,228.914 563.535,229.747 562.5,230C 564.329,231.995 566.329,233.828 568.5,235.5C 565.403,236.194 565.069,237.194 567.5,238.5C 571.434,238.17 575.434,238.003 579.5,238C 576.229,236.942 573.229,235.442 570.5,233.5C 571.518,232.148 572.851,231.148 574.5,230.5C 573.624,229.749 572.624,229.249 571.5,229C 574.742,227.361 578.076,226.361 581.5,226C 580.809,227.067 580.309,228.234 580,229.5C 579.002,226.972 578.169,226.972 577.5,229.5C 576.452,231.41 576.452,233.244 577.5,235C 579.769,234.626 582.102,234.626 584.5,235C 583.304,235.654 583.304,236.154 584.5,236.5C 586.255,233.977 588.089,233.977 590,236.5C 591.713,235.863 591.879,234.863 590.5,233.5C 591.325,232.614 592.325,232.281 593.5,232.5C 593.561,234.592 594.561,236.092 596.5,237C 598.076,237.388 599.409,236.888 600.5,235.5C 599.311,234.571 597.978,234.238 596.5,234.5C 596.286,232.856 596.62,231.356 597.5,230C 598.744,229.544 599.577,230.044 600,231.5C 602.477,228.209 603.977,224.542 604.5,220.5C 602.208,220.756 600.041,220.423 598,219.5C 596.326,220.676 594.826,222.01 593.5,223.5C 590.203,221.851 586.87,220.185 583.5,218.5C 584.109,215.163 585.276,214.83 587,217.5C 591.8,213.806 591.3,212.306 585.5,213C 583.875,212.147 583.542,211.147 584.5,210C 581.283,207.378 579.116,204.545 578,201.5C 576.946,202.482 576.446,203.649 576.5,205C 575.552,205.483 574.552,205.649 573.5,205.5C 573.215,203.712 573.548,202.045 574.5,200.5C 576.356,199.724 577.689,198.391 578.5,196.5C 580.234,198.234 581.568,200.234 582.5,202.5C 586.804,201.522 587.138,199.355 583.5,196C 583.833,195.667 584.167,195.333 584.5,195C 579.373,193.474 579.373,192.474 584.5,192C 582.5,191.667 580.5,191.333 578.5,191C 579.759,190.077 581.092,189.243 582.5,188.5C 581.289,187.28 581.289,186.113 582.5,185C 579.023,184.695 575.856,185.528 573,187.5C 572.072,185.693 570.906,184.026 569.5,182.5C 570.274,181.289 571.107,181.289 572,182.5C 574.967,179.599 578.467,177.599 582.5,176.5C 583.853,175.315 585.02,173.981 586,172.5C 587.813,173.609 588.646,172.942 588.5,170.5C 589.5,170.5 590.5,170.5 591.5,170.5C 591.376,165.375 593.043,164.208 596.5,167C 595.167,167.333 593.833,167.667 592.5,168C 597.658,172 601.158,170.833 603,164.5C 604.073,165.28 605.24,165.113 606.5,164C 605.437,162.812 604.103,162.312 602.5,162.5C 602.714,160.856 602.38,159.356 601.5,158C 603.792,155.976 604.459,156.31 603.5,159C 604.563,160.188 605.897,160.688 607.5,160.5C 607.544,163.481 607.877,163.814 608.5,161.5C 608.182,160.353 607.516,159.519 606.5,159C 607.893,157.829 608.727,156.329 609,154.5C 611.688,152.636 614.188,150.636 616.5,148.5C 618.997,146.129 621.997,145.129 625.5,145.5C 628.242,154.686 630.742,164.019 633,173.5C 636.113,175.058 636.28,176.891 633.5,179C 636.302,184.765 638.302,190.932 639.5,197.5C 639.086,200.032 638.752,202.532 638.5,205C 640.192,209.985 641.358,215.152 642,220.5C 642.5,221 643,221.5 643.5,222C 643.167,223 642.833,224 642.5,225C 643.293,226.085 643.96,227.252 644.5,228.5C 643.438,231.103 643.272,233.77 644,236.5C 644.925,240.903 646.091,245.236 647.5,249.5C 646.96,250.748 646.293,251.915 645.5,253C 646.43,254.194 647.097,255.527 647.5,257C 647.586,259.567 647.253,262.234 646.5,265C 647.245,267.478 647.911,269.978 648.5,272.5C 648.471,274.029 647.804,275.196 646.5,276C 647.5,277 648.5,278 649.5,279C 648.426,279.739 647.759,280.739 647.5,282C 648.833,285.333 648.833,288.667 647.5,292C 648.222,294.677 649.222,297.177 650.5,299.5C 643.338,296.831 636.005,293.665 628.5,290C 623.184,289.884 618.184,288.718 613.5,286.5C 612.893,286.624 612.56,286.957 612.5,287.5C 611.85,287.804 611.183,288.137 610.5,288.5C 607.223,287.62 603.889,286.953 600.5,286.5C 598.519,286.437 596.852,287.104 595.5,288.5C 594.378,287.37 593.044,286.703 591.5,286.5C 583.758,288.18 576.092,290.18 568.5,292.5C 565.518,291.713 562.851,292.38 560.5,294.5C 552.065,296.362 544.398,299.695 537.5,304.5C 533.981,306.842 530.148,308.509 526,309.5C 520.667,306.023 515.167,302.69 509.5,299.5C 502.055,296.185 494.555,293.185 487,290.5C 486.275,291.059 485.442,291.392 484.5,291.5C 474.232,289.202 463.899,287.202 453.5,285.5C 450.297,287.238 446.797,287.571 443,286.5C 437.346,287.928 431.513,288.761 425.5,289C 417.281,290.957 409.281,293.29 401.5,296C 400.619,296.708 399.953,297.542 399.5,298.5C 395.838,298.003 392.838,299.169 390.5,302C 387.739,302.722 385.073,302.555 382.5,301.5C 380.195,300.011 377.862,298.511 375.5,297C 366.339,294.25 357.172,291.416 348,288.5C 343.843,288.366 339.677,288.699 335.5,289.5C 336.105,287.974 337.271,286.974 339,286.5C 339.333,286.833 339.667,287.167 340,287.5C 340.972,285.695 342.139,284.028 343.5,282.5C 344.281,283.737 345.281,284.737 346.5,285.5C 349.201,282.346 352.534,281.679 356.5,283.5C 357.308,281.577 357.808,279.577 358,277.5C 359.667,276.833 361.333,276.167 363,275.5C 363.982,276.759 364.315,278.092 364,279.5C 362.365,278.151 360.865,278.318 359.5,280C 363.009,279.979 366.175,280.812 369,282.5C 369.483,281.552 369.649,280.552 369.5,279.5C 368.5,279.5 367.5,279.5 366.5,279.5C 365.948,277.669 365.948,276.003 366.5,274.5C 368.22,275.955 370.22,276.788 372.5,277C 374.368,279.828 376.534,282.328 379,284.5C 381.514,285.372 384.348,285.372 387.5,284.5C 387.069,283.707 386.735,282.873 386.5,282C 388.881,280.077 390.381,277.577 391,274.5C 392.337,275.765 393.837,276.265 395.5,276C 394.149,274.383 392.482,273.216 390.5,272.5C 392.413,271.949 394.413,271.782 396.5,272C 395.396,270.869 395.729,270.035 397.5,269.5C 398.275,271.475 399.609,272.309 401.5,272C 400.91,270.491 400.244,268.991 399.5,267.5C 396.277,268.294 393.111,267.961 390,266.5C 389.56,264.924 388.727,263.59 387.5,262.5C 388.826,262.795 390.159,262.295 391.5,261C 389.595,260.174 389.261,259.007 390.5,257.5C 392.658,260.33 395.324,260.997 398.5,259.5C 397.41,258.391 397.41,257.391 398.5,256.5C 401.055,257.76 403.555,259.094 406,260.5C 406.09,258.232 404.923,256.732 402.5,256C 404.101,255.727 405.601,255.227 407,254.5C 407.637,256.303 408.803,257.636 410.5,258.5C 414.339,257.279 414.339,256.612 410.5,256.5C 409.538,253.35 407.538,250.85 404.5,249C 405.449,248.383 406.282,248.549 407,249.5C 409.071,246.584 410.405,246.918 411,250.5C 413.719,249.556 416.552,249.223 419.5,249.5C 419.38,246.795 420.38,246.128 422.5,247.5C 423.613,245.969 425.113,244.969 427,244.5C 429.137,245.077 431.304,245.41 433.5,245.5C 433.337,247.857 433.503,250.19 434,252.5C 436.316,253.522 436.816,255.022 435.5,257C 437.863,257.589 438.863,259.089 438.5,261.5C 440.467,261.261 442.301,261.594 444,262.5C 444.448,260.591 443.615,259.424 441.5,259C 443.167,258.667 444.833,258.333 446.5,258C 445.663,256.989 445.33,255.822 445.5,254.5C 449.311,254.404 449.311,253.738 445.5,252.5C 446.36,250.069 448.027,248.736 450.5,248.5C 450.351,249.552 450.517,250.552 451,251.5C 451.333,250.167 451.667,248.833 452,247.5C 452.333,248.167 452.667,248.833 453,249.5C 454.156,248.007 454.99,248.174 455.5,250C 454.279,252.706 453.279,255.372 452.5,258C 456.985,262.161 459.652,261.328 460.5,255.5C 463.999,255.741 464.332,254.908 461.5,253C 464.585,249.161 468.585,246.828 473.5,246C 471.307,244.945 469.974,243.779 469.5,242.5C 466.972,244.874 463.972,245.874 460.5,245.5C 460.5,243.5 460.5,241.5 460.5,239.5C 461.873,239.657 463.207,239.49 464.5,239C 469.411,235.048 474.744,231.881 480.5,229.5C 480.579,228.07 480.246,226.736 479.5,225.5C 478.152,223.539 476.819,223.372 475.5,225C 477.952,226.806 477.619,228.306 474.5,229.5C 473.851,227.376 473.017,225.376 472,223.5C 471.781,224.938 471.281,226.271 470.5,227.5C 468.556,226.811 466.556,226.311 464.5,226C 465.731,224.817 465.731,223.651 464.5,222.5C 460.879,224.886 460.545,227.72 463.5,231C 461.892,231.658 460.725,231.158 460,229.5C 459.385,231.116 458.385,232.449 457,233.5C 456.383,232.551 456.549,231.718 457.5,231C 456.228,228.739 454.562,228.239 452.5,229.5C 454.156,231.412 454.489,233.412 453.5,235.5C 452.571,232.999 451.071,232.333 449,233.5C 446.527,231.775 446.027,229.608 447.5,227C 445.575,226.055 443.242,225.055 440.5,224C 443.226,221.97 446.226,220.47 449.5,219.5C 450.086,219.709 450.586,220.043 451,220.5C 451.49,219.207 451.657,217.873 451.5,216.5C 449.801,216.66 448.134,216.494 446.5,216C 448.701,214.957 451.034,214.123 453.5,213.5C 451.117,213.127 448.45,212.627 445.5,212C 446.519,207.835 447.852,203.835 449.5,200C 448.354,197.443 449.354,196.11 452.5,196C 451.034,194.448 450.034,192.614 449.5,190.5C 448.758,189.713 447.925,189.047 447,188.5C 446.527,190.779 445.527,192.779 444,194.5C 443.626,193.584 443.126,192.75 442.5,192C 444.701,191.223 444.701,190.056 442.5,188.5C 441.377,190.289 440.044,190.622 438.5,189.5C 439.326,188.549 439.492,187.549 439,186.5C 436.756,188.994 434.423,188.994 432,186.5C 431.51,187.793 431.343,189.127 431.5,190.5C 429.833,190.5 428.167,190.5 426.5,190.5C 426.261,188.533 426.594,186.699 427.5,185C 430.798,184.513 433.798,183.347 436.5,181.5C 436.154,180.304 435.654,180.304 435,181.5C 433.67,178.769 433.17,176.102 433.5,173.5C 430.235,174.186 427.068,175.186 424,176.5C 422.242,174.847 420.076,173.513 417.5,172.5C 419.611,171.152 421.445,171.485 423,173.5C 423.49,172.207 423.657,170.873 423.5,169.5C 424.93,169.421 426.264,169.754 427.5,170.5C 428.308,170.192 428.975,169.692 429.5,169C 428.167,167.333 428.167,165.667 429.5,164C 428.234,163.691 427.067,163.191 426,162.5C 426.524,159.057 425.358,158.723 422.5,161.5C 421.393,160.978 420.226,160.645 419,160.5C 414.763,161.024 410.43,162.024 406,163.5C 402.867,161.782 401.367,162.782 401.5,166.5C 399.409,166.682 397.409,166.348 395.5,165.5C 392.908,167.543 390.741,169.876 389,172.5C 387.469,171.783 386.136,170.783 385,169.5C 384.5,169.667 384,169.833 383.5,170C 381.564,173.058 379.564,175.891 377.5,178.5C 380.5,178.167 381.833,179.5 381.5,182.5C 380.448,182.351 379.448,182.517 378.5,183C 381.028,183.669 381.028,184.502 378.5,185.5C 375.264,184.378 374.931,182.878 377.5,181C 375.972,179.639 374.305,178.472 372.5,177.5C 370.185,177.799 370.185,178.632 372.5,180C 369.833,181 369.833,182 372.5,183C 371.643,183.689 370.977,184.522 370.5,185.5C 374.286,186.878 378.286,188.711 382.5,191C 386.066,196.088 384.899,197.921 379,196.5C 377.416,196.988 376.249,197.988 375.5,199.5C 375.623,197.378 375.623,195.211 375.5,193C 372.631,192.623 370.131,193.456 368,195.5C 366.59,194.213 365.09,193.046 363.5,192C 364.731,190.817 364.731,189.651 363.5,188.5C 360.308,188.861 358.141,190.528 357,193.5C 355.989,192.663 354.822,192.33 353.5,192.5C 353.414,194.677 352.747,196.677 351.5,198.5C 352.305,200.472 353.639,201.972 355.5,203C 351.935,203.053 348.935,201.72 346.5,199C 348.842,197.608 348.842,196.775 346.5,196.5C 348.244,193.058 348.911,189.558 348.5,186C 350.464,183.482 351.13,180.816 350.5,178C 353.429,172.976 355.929,167.809 358,162.5C 358.651,160.765 358.485,159.098 357.5,157.5C 363.554,145.723 369.387,133.723 375,121.5C 377.982,119.804 379.316,117.137 379,113.5C 383.696,106.812 388.363,100.146 393,93.5C 395.54,91.2953 397.707,88.7953 399.5,86C 402.196,85.3102 404.363,83.8102 406,81.5C 410.391,83.9031 413.391,87.5698 415,92.5C 418.798,96.1254 422.298,99.7921 425.5,103.5C 426.098,104.795 426.598,106.128 427,107.5C 430.42,109.251 432.754,111.918 434,115.5C 437.092,116.923 439.092,119.257 440,122.5C 442.606,126.289 446.106,128.622 450.5,129.5C 452.611,129.514 454.445,128.848 456,127.5C 458.438,128.966 460.605,128.632 462.5,126.5C 477.621,126.615 492.621,126.949 507.5,127.5C 511.586,125.53 515.753,125.53 520,127.5C 522.209,125.294 524.709,124.96 527.5,126.5C 528.5,125.833 529.5,125.167 530.5,124.5C 533.515,125.673 536.515,126.673 539.5,127.5C 541.332,126.752 542.999,125.752 544.5,124.5C 549.159,117.682 554.326,111.349 560,105.5C 561.791,100.96 564.791,97.2938 569,94.5C 569.333,93.5 569.667,92.5 570,91.5C 576.277,86.8539 582.11,81.8539 587.5,76.5C 591.271,78.5924 595.104,80.5924 599,82.5C 600.643,84.9768 602.476,87.3102 604.5,89.5C 605.325,91.8013 605.992,94.1346 606.5,96.5 Z"/></g>
<g><path style="opacity:1" fill="#ecc897" d="M 518.5,201.5 C 524.572,201.845 530.572,201.845 536.5,201.5C 540.344,203.39 544.011,205.556 547.5,208C 548.574,208.739 549.241,209.739 549.5,211C 549.906,217.128 549.406,223.294 548,229.5C 546.745,230.211 545.579,231.044 544.5,232C 539.839,232.803 535.339,233.97 531,235.5C 526.949,233.12 522.949,233.12 519,235.5C 502.391,229.835 498.557,219.501 507.5,204.5C 511.162,203.098 514.829,202.098 518.5,201.5 Z"/></g>
<g><path style="opacity:1" fill="#d4924f" d="M 602.5,145.5 C 603.682,147.838 605.348,149.838 607.5,151.5C 610.62,150.642 613.62,149.642 616.5,148.5C 614.188,150.636 611.688,152.636 609,154.5C 608.727,156.329 607.893,157.829 606.5,159C 607.516,159.519 608.182,160.353 608.5,161.5C 607.877,163.814 607.544,163.481 607.5,160.5C 605.897,160.688 604.563,160.188 603.5,159C 604.459,156.31 603.792,155.976 601.5,158C 602.38,159.356 602.714,160.856 602.5,162.5C 604.103,162.312 605.437,162.812 606.5,164C 605.24,165.113 604.073,165.28 603,164.5C 601.158,170.833 597.658,172 592.5,168C 593.833,167.667 595.167,167.333 596.5,167C 593.043,164.208 591.376,165.375 591.5,170.5C 590.5,170.5 589.5,170.5 588.5,170.5C 588.646,172.942 587.813,173.609 586,172.5C 585.02,173.981 583.853,175.315 582.5,176.5C 578.467,177.599 574.967,179.599 572,182.5C 571.107,181.289 570.274,181.289 569.5,182.5C 570.906,184.026 572.072,185.693 573,187.5C 575.856,185.528 579.023,184.695 582.5,185C 581.289,186.113 581.289,187.28 582.5,188.5C 581.092,189.243 579.759,190.077 578.5,191C 580.5,191.333 582.5,191.667 584.5,192C 579.373,192.474 579.373,193.474 584.5,195C 584.167,195.333 583.833,195.667 583.5,196C 587.138,199.355 586.804,201.522 582.5,202.5C 581.568,200.234 580.234,198.234 578.5,196.5C 577.689,198.391 576.356,199.724 574.5,200.5C 573.548,202.045 573.215,203.712 573.5,205.5C 574.552,205.649 575.552,205.483 576.5,205C 576.446,203.649 576.946,202.482 578,201.5C 579.116,204.545 581.283,207.378 584.5,210C 583.542,211.147 583.875,212.147 585.5,213C 591.3,212.306 591.8,213.806 587,217.5C 585.276,214.83 584.109,215.163 583.5,218.5C 586.87,220.185 590.203,221.851 593.5,223.5C 594.826,222.01 596.326,220.676 598,219.5C 600.041,220.423 602.208,220.756 604.5,220.5C 603.977,224.542 602.477,228.209 600,231.5C 599.577,230.044 598.744,229.544 597.5,230C 596.62,231.356 596.286,232.856 596.5,234.5C 597.978,234.238 599.311,234.571 600.5,235.5C 599.409,236.888 598.076,237.388 596.5,237C 594.561,236.092 593.561,234.592 593.5,232.5C 592.325,232.281 591.325,232.614 590.5,233.5C 591.879,234.863 591.713,235.863 590,236.5C 588.089,233.977 586.255,233.977 584.5,236.5C 583.304,236.154 583.304,235.654 584.5,235C 582.102,234.626 579.769,234.626 577.5,235C 576.452,233.244 576.452,231.41 577.5,229.5C 578.169,226.972 579.002,226.972 580,229.5C 580.309,228.234 580.809,227.067 581.5,226C 578.076,226.361 574.742,227.361 571.5,229C 572.624,229.249 573.624,229.749 574.5,230.5C 572.851,231.148 571.518,232.148 570.5,233.5C 573.229,235.442 576.229,236.942 579.5,238C 575.434,238.003 571.434,238.17 567.5,238.5C 565.069,237.194 565.403,236.194 568.5,235.5C 566.329,233.828 564.329,231.995 562.5,230C 563.535,229.747 564.535,228.914 565.5,227.5C 564.349,226.269 563.183,226.269 562,227.5C 561.5,227 561,226.5 560.5,226C 562.998,222.95 566.165,222.117 570,223.5C 570.333,222.833 570.667,222.167 571,221.5C 572.46,223.422 574.127,224.089 576,223.5C 576.667,222.5 576.667,221.5 576,220.5C 575.08,220.07 574.247,219.736 573.5,219.5C 574.415,217.02 575.915,216.353 578,217.5C 578.624,215.536 578.124,213.869 576.5,212.5C 577.999,210.198 579.332,210.531 580.5,213.5C 580.833,213 581.167,212.5 581.5,212C 580.375,210.037 579.041,208.204 577.5,206.5C 575.298,207.78 573.132,207.78 571,206.5C 570.481,207.516 569.647,208.182 568.5,208.5C 564.567,207.012 564.9,206.345 569.5,206.5C 569.649,205.448 569.483,204.448 569,203.5C 567.817,204.731 566.651,204.731 565.5,203.5C 566.376,202.749 567.376,202.249 568.5,202C 567.271,200.471 565.771,199.304 564,198.5C 560.89,198.647 557.39,198.647 553.5,198.5C 553.719,197.325 553.386,196.325 552.5,195.5C 550.884,194.885 549.551,193.885 548.5,192.5C 545.167,193.167 541.833,193.833 538.5,194.5C 538.167,194.167 537.833,193.833 537.5,193.5C 539.966,192.877 542.299,192.043 544.5,191C 543.284,189.26 541.618,188.26 539.5,188C 542.167,187.667 544.833,187.333 547.5,187C 544.893,184.895 541.893,184.062 538.5,184.5C 538.281,183.325 538.614,182.325 539.5,181.5C 541.059,182.447 542.726,183.113 544.5,183.5C 546.359,182.31 548.192,182.31 550,183.5C 550.5,183.167 551,182.833 551.5,182.5C 549.816,181.146 549.316,179.479 550,177.5C 550.689,178.357 551.522,179.023 552.5,179.5C 553.739,177.993 553.405,176.826 551.5,176C 552.833,175 552.833,174 551.5,173C 548.343,172.76 545.176,172.927 542,173.5C 540.5,173.167 539,172.833 537.5,172.5C 537.709,171.914 538.043,171.414 538.5,171C 536.285,170.83 534.285,170.163 532.5,169C 536.67,167.303 540.67,165.97 544.5,165C 543.24,163.186 543.24,161.353 544.5,159.5C 545.451,160.326 546.451,160.492 547.5,160C 546.346,159.086 546.513,158.253 548,157.5C 548.197,159.861 549.364,161.528 551.5,162.5C 553.216,162.997 554.883,163.331 556.5,163.5C 556.5,165.5 556.5,167.5 556.5,169.5C 559.096,168.787 561.763,168.787 564.5,169.5C 564.5,167.833 564.5,166.167 564.5,164.5C 568.775,163.726 571.775,165.226 573.5,169C 571.249,171.795 568.582,174.128 565.5,176C 567.848,178.293 570.015,178.46 572,176.5C 573.587,177.727 574.921,177.394 576,175.5C 577.226,173.13 578.06,170.964 578.5,169C 580.025,167.991 581.692,167.491 583.5,167.5C 583.579,166.07 583.246,164.736 582.5,163.5C 584.637,161.764 585.304,159.764 584.5,157.5C 586.732,156.97 588.898,156.637 591,156.5C 592.811,157.424 592.645,158.257 590.5,159C 591.667,159.5 592.5,160.333 593,161.5C 595.531,159.035 597.031,156.035 597.5,152.5C 598.167,152.833 598.833,153.167 599.5,153.5C 600.51,150.817 601.51,148.151 602.5,145.5 Z"/></g>
<g><path style="opacity:1" fill="#d4744f" d="M 598.5,142.5 C 596.678,144.234 594.345,145.234 591.5,145.5C 588.877,146.123 586.211,146.123 583.5,145.5C 586.016,145.245 588.35,144.411 590.5,143C 593.146,142.503 595.813,142.336 598.5,142.5 Z"/></g>
<g><path style="opacity:1" fill="#ecc998" d="M 401.5,201.5 C 409.424,201.566 417.424,201.732 425.5,202C 428.361,202.54 431.028,203.54 433.5,205C 438.099,212.063 437.932,219.229 433,226.5C 431.786,228.049 430.286,229.215 428.5,230C 421.669,230.935 414.836,231.769 408,232.5C 404.031,230.466 399.865,228.966 395.5,228C 394.628,224.649 393.628,221.315 392.5,218C 393.054,215.176 393.554,212.343 394,209.5C 396.705,206.964 399.205,204.297 401.5,201.5 Z"/></g>
<g><path style="opacity:1" fill="#57402d" d="M 523.5,265.5 C 520.904,264.735 518.237,264.401 515.5,264.5C 518.377,261.873 521.044,262.206 523.5,265.5 Z"/></g>
<g><path style="opacity:1" fill="#151116" d="M 515.5,264.5 C 518.237,264.401 520.904,264.735 523.5,265.5C 524.473,265.987 525.473,266.487 526.5,267C 532.115,272.754 531.781,278.087 525.5,283C 522.461,283.353 519.795,284.52 517.5,286.5C 514.956,284.371 512.122,282.704 509,281.5C 508.333,276.833 508.333,272.167 509,267.5C 511.045,266.074 513.212,265.074 515.5,264.5 Z"/></g>
<g><path style="opacity:1" fill="#130f15" d="M 423.5,265.5 C 424.5,268.167 425.5,270.833 426.5,273.5C 426.434,276.915 425.268,279.915 423,282.5C 421.989,283.337 420.822,283.67 419.5,283.5C 415.094,283.252 410.76,282.585 406.5,281.5C 403.177,275.269 404.177,269.769 409.5,265C 412.157,264.828 414.991,264.328 418,263.5C 420.178,263.395 422.012,264.061 423.5,265.5 Z"/></g>
<g><path style="opacity:1" fill="#805c39" d="M 423.5,265.5 C 426.525,267.587 427.525,270.254 426.5,273.5C 425.5,270.833 424.5,268.167 423.5,265.5 Z"/></g>
<g><path style="opacity:1" fill="#3f2e24" d="M 406.5,281.5 C 410.76,282.585 415.094,283.252 419.5,283.5C 418.855,284.812 417.855,285.812 416.5,286.5C 412.663,285.62 409.33,283.954 406.5,281.5 Z"/></g>
<g><path style="opacity:0.998" fill="#ecbd90" d="M 382.5,301.5 C 382.801,304.317 384.134,304.984 386.5,303.5C 387.167,304.5 387.833,305.5 388.5,306.5C 389.687,305.106 390.354,305.273 390.5,307C 388.178,309.607 387.345,312.441 388,315.5C 386.542,314.253 385.042,314.253 383.5,315.5C 383.002,316.603 382.669,317.603 382.5,318.5C 380.523,317.812 378.523,318.145 376.5,319.5C 377.603,319.998 378.603,320.331 379.5,320.5C 378.846,322.115 378.346,323.782 378,325.5C 377.107,324.289 376.274,324.289 375.5,325.5C 374.05,326.85 373.383,328.516 373.5,330.5C 374.978,330.762 376.311,330.429 377.5,329.5C 376.106,328.313 376.273,327.646 378,327.5C 379.722,327.426 381.555,327.426 383.5,327.5C 380.872,329.488 378.205,331.488 375.5,333.5C 379.618,336.268 379.451,337.268 375,336.5C 373.775,336.862 372.609,337.362 371.5,338C 373.291,338.415 374.624,339.415 375.5,341C 373.5,341 371.5,341 369.5,341C 366.311,341.981 365.978,343.314 368.5,345C 365.551,345.847 363.218,345.014 361.5,342.5C 362.364,340.803 363.697,339.637 365.5,339C 362.061,339.124 358.894,340.29 356,342.5C 348.703,341.514 344.203,337.514 342.5,330.5C 341.5,330.5 340.5,330.5 339.5,330.5C 339.5,331.833 339.5,333.167 339.5,334.5C 334.328,334.234 333.661,335.401 337.5,338C 336.095,339.269 334.429,339.769 332.5,339.5C 333.549,335.169 331.882,333.003 327.5,333C 328.061,331.324 329.061,329.991 330.5,329C 329.426,328.261 328.759,327.261 328.5,326C 329.271,323.733 330.604,321.9 332.5,320.5C 331.167,319.5 331.167,318.5 332.5,317.5C 332.333,317.167 332.167,316.833 332,316.5C 330.237,317.944 328.237,318.944 326,319.5C 323.243,316.571 321.076,313.238 319.5,309.5C 320.716,308.904 322.049,308.737 323.5,309C 324.334,306.507 326.001,306.007 328.5,307.5C 330.791,307.378 332.791,306.545 334.5,305C 336.085,301.372 337.918,297.872 340,294.5C 341.046,296.09 342.213,297.59 343.5,299C 345.731,299.163 347.065,297.997 347.5,295.5C 344.807,293.73 341.807,293.063 338.5,293.5C 338.5,292.5 338.5,291.5 338.5,290.5C 336.194,290.993 333.861,291.326 331.5,291.5C 331.833,290.5 332.5,289.833 333.5,289.5C 334.167,289.5 334.833,289.5 335.5,289.5C 339.677,288.699 343.843,288.366 348,288.5C 357.172,291.416 366.339,294.25 375.5,297C 377.862,298.511 380.195,300.011 382.5,301.5 Z"/></g>
<g><path style="opacity:0.998" fill="#ecc898" d="M 537.5,304.5 C 536.942,305.79 535.942,306.623 534.5,307C 535.766,307.309 536.933,307.809 538,308.5C 538.212,310.78 539.045,312.78 540.5,314.5C 539.833,315.167 539.167,315.833 538.5,316.5C 540.169,316.388 541.502,317.388 542.5,319.5C 542.392,320.442 542.059,321.275 541.5,322C 543.5,321.667 545.5,321.333 547.5,321C 548.133,324.459 548.8,327.959 549.5,331.5C 550.251,330.624 550.751,329.624 551,328.5C 551.5,329 552,329.5 552.5,330C 551.751,331.734 551.251,333.567 551,335.5C 547.944,334.377 547.778,335.044 550.5,337.5C 551.609,336.41 552.609,336.41 553.5,337.5C 552.167,339.5 550.833,341.5 549.5,343.5C 549.833,344.167 550.167,344.833 550.5,345.5C 551.668,342.531 553.001,342.198 554.5,344.5C 555.432,342.234 556.766,340.234 558.5,338.5C 559.906,339.668 561.072,339.335 562,337.5C 562.333,338.5 562.667,339.5 563,340.5C 563.419,339.328 564.085,338.328 565,337.5C 566.747,341.421 569.581,342.421 573.5,340.5C 573.669,342.117 574.003,343.784 574.5,345.5C 576.92,341.253 578.587,341.586 579.5,346.5C 583.63,347.166 587.463,348.5 591,350.5C 591.5,350 592,349.5 592.5,349C 590.963,347.89 590.297,346.39 590.5,344.5C 592.467,344.739 594.301,344.406 596,343.5C 596.353,344.672 596.187,345.838 595.5,347C 595.613,348.28 596.28,349.113 597.5,349.5C 597.476,347.755 597.81,345.921 598.5,344C 598.104,342.103 597.104,340.603 595.5,339.5C 597.353,338.24 599.186,338.24 601,339.5C 601.915,338.672 602.581,337.672 603,336.5C 604.154,338.957 605.488,338.957 607,336.5C 608.713,339.015 608.88,341.682 607.5,344.5C 606.549,343.674 605.549,343.508 604.5,344C 605.337,345.011 605.67,346.178 605.5,347.5C 606.833,347.5 608.167,347.5 609.5,347.5C 609.227,345.549 609.893,344.049 611.5,343C 610.483,341.951 610.316,340.784 611,339.5C 611.333,339.833 611.667,340.167 612,340.5C 612.309,339.234 612.809,338.067 613.5,337C 611.557,335.807 611.724,334.307 614,332.5C 616.557,333.646 617.89,332.646 618,329.5C 620.734,328.638 620.901,327.805 618.5,327C 619.448,326.517 620.448,326.351 621.5,326.5C 622.167,323.833 622.833,321.167 623.5,318.5C 622.167,318.5 620.833,318.5 619.5,318.5C 619.261,316.533 619.594,314.699 620.5,313C 618.924,313.152 617.591,313.985 616.5,315.5C 616.167,315.167 615.833,314.833 615.5,314.5C 617.682,313.177 618.349,311.51 617.5,309.5C 616.833,310.167 616.167,310.833 615.5,311.5C 614.692,309.577 614.192,307.577 614,305.5C 613.111,306.888 612.611,306.722 612.5,305C 612.82,303.347 613.82,302.347 615.5,302C 614.376,301.751 613.376,301.251 612.5,300.5C 612.833,300.167 613.167,299.833 613.5,299.5C 615.432,300.52 617.432,300.687 619.5,300C 618.338,299.173 617.171,298.34 616,297.5C 613.182,298.591 610.349,298.591 607.5,297.5C 607.357,295.738 607.691,294.071 608.5,292.5C 610.763,291.35 613.096,290.35 615.5,289.5C 614.643,288.575 613.643,287.908 612.5,287.5C 612.56,286.957 612.893,286.624 613.5,286.5C 618.184,288.718 623.184,289.884 628.5,290C 636.005,293.665 643.338,296.831 650.5,299.5C 649.787,302.237 649.787,304.904 650.5,307.5C 647.92,310.376 647.92,313.21 650.5,316C 649.415,318.172 648.081,320.172 646.5,322C 647.894,323.739 648.561,325.739 648.5,328C 648.026,331.537 647.359,335.037 646.5,338.5C 646.608,339.442 646.941,340.275 647.5,341C 643.809,345.124 642.809,349.791 644.5,355C 643.06,359.365 641.893,363.865 641,368.5C 635.038,380.403 628.705,392.069 622,403.5C 616.833,408.667 611.667,413.833 606.5,419C 602.88,419.672 600.214,421.506 598.5,424.5C 590.913,427.649 583.246,430.649 575.5,433.5C 571.856,434.311 568.523,435.811 565.5,438C 563.765,438.651 562.098,438.485 560.5,437.5C 557.055,438.972 553.555,440.306 550,441.5C 549.228,441.355 548.561,441.022 548,440.5C 543.8,441.704 539.8,443.371 536,445.5C 530.559,445.81 525.059,445.81 519.5,445.5C 506.329,450.498 492.829,451.498 479,448.5C 475.787,449.007 472.62,449.674 469.5,450.5C 468.167,449.833 466.833,449.167 465.5,448.5C 462.576,451.399 459.243,452.066 455.5,450.5C 450.266,448.419 444.933,448.086 439.5,449.5C 431.091,448.96 422.758,447.96 414.5,446.5C 413.378,447.63 412.044,448.297 410.5,448.5C 410.389,447.883 410.056,447.383 409.5,447C 406.964,446.661 404.464,446.161 402,445.5C 401.235,445.57 400.735,445.903 400.5,446.5C 399.094,446.027 398.427,445.027 398.5,443.5C 398.37,439.475 397.37,435.809 395.5,432.5C 394.146,426.419 392.312,420.419 390,414.5C 389.503,412.19 389.337,409.857 389.5,407.5C 386.886,407.723 385.219,406.556 384.5,404C 379.339,403.002 374.339,401.502 369.5,399.5C 368.378,400.63 367.044,401.297 365.5,401.5C 365.189,400.522 364.522,399.855 363.5,399.5C 356.702,399.631 349.869,399.631 343,399.5C 341.188,399.493 339.688,400.16 338.5,401.5C 335.916,400.607 333.249,400.274 330.5,400.5C 327.391,400.736 324.391,400.403 321.5,399.5C 320.032,396.722 319.199,393.722 319,390.5C 315.802,388.463 314.635,385.797 315.5,382.5C 314.602,380.374 313.435,378.374 312,376.5C 312.471,372.532 311.638,368.699 309.5,365C 309.735,364.127 310.069,363.293 310.5,362.5C 309.495,355.493 308.829,348.993 308.5,343C 308.615,341.105 309.282,339.438 310.5,338C 309.062,333.234 309.729,328.734 312.5,324.5C 313.496,324.414 314.329,324.748 315,325.5C 315,328.833 315,332.167 315,335.5C 315.893,336.711 316.726,336.711 317.5,335.5C 318.246,334.264 318.579,332.93 318.5,331.5C 322.493,331 324.16,332.5 323.5,336C 325.199,336.393 326.699,335.893 328,334.5C 331.78,335.718 332.28,337.718 329.5,340.5C 330.274,341.711 331.107,341.711 332,340.5C 332.42,344.191 332.92,347.858 333.5,351.5C 334.5,351.5 335.5,351.5 336.5,351.5C 336.116,349.071 335.449,346.737 334.5,344.5C 335.5,344.5 336.5,344.5 337.5,344.5C 337.561,347.05 338.894,348.55 341.5,349C 340.24,350.814 340.24,352.647 341.5,354.5C 342.597,352.465 344.263,351.132 346.5,350.5C 345.271,349.719 343.938,349.219 342.5,349C 345.318,348.16 347.484,348.994 349,351.5C 351.33,349.968 353.33,350.302 355,352.5C 355.54,350.865 355.04,349.532 353.5,348.5C 353.977,347.069 354.643,345.736 355.5,344.5C 360.631,347.646 365.964,350.312 371.5,352.5C 374.75,352.208 377.417,350.875 379.5,348.5C 381.516,349.706 383.516,349.706 385.5,348.5C 380.36,346.783 380.36,344.949 385.5,343C 384.207,342.51 382.873,342.343 381.5,342.5C 381.64,340.876 380.973,339.71 379.5,339C 381.976,337.691 383.976,335.858 385.5,333.5C 386.478,333.977 387.311,334.643 388,335.5C 389.312,332.762 391.478,331.428 394.5,331.5C 394.286,329.856 394.62,328.356 395.5,327C 392.271,326.644 390.771,324.81 391,321.5C 390.107,322.711 389.274,322.711 388.5,321.5C 389.09,320.201 390.09,319.368 391.5,319C 390.833,318.667 390.167,318.333 389.5,318C 390.198,317.029 390.198,315.863 389.5,314.5C 390.191,312.109 391.191,312.109 392.5,314.5C 393.167,314.167 393.833,313.833 394.5,313.5C 394.569,315.278 394.903,317.111 395.5,319C 394.833,319.333 394.167,319.667 393.5,320C 394.618,321.074 395.618,322.24 396.5,323.5C 397.386,322.675 397.719,321.675 397.5,320.5C 399.527,320.338 401.527,320.505 403.5,321C 402.289,322.113 402.289,323.28 403.5,324.5C 401.055,326.364 400.888,328.364 403,330.5C 404.617,329.149 405.784,327.482 406.5,325.5C 407.141,326.993 408.141,327.993 409.5,328.5C 411.775,333.192 415.109,337.026 419.5,340C 427.632,342.586 435.965,344.752 444.5,346.5C 453.747,345.884 462.747,344.051 471.5,341C 476.776,336.882 480.776,331.715 483.5,325.5C 483.291,320.787 481.625,316.787 478.5,313.5C 473.237,310.51 467.904,307.51 462.5,304.5C 459.679,305.8 457.012,305.467 454.5,303.5C 449.988,304.797 445.488,305.131 441,304.5C 432.936,305.667 425.103,307.334 417.5,309.5C 415.443,307.144 412.776,306.144 409.5,306.5C 409.607,308.903 408.607,310.736 406.5,312C 407.731,313.183 407.731,314.349 406.5,315.5C 405.692,315.192 405.025,314.692 404.5,314C 405.76,312.186 405.76,310.353 404.5,308.5C 402.512,309.289 402.179,310.455 403.5,312C 402.833,312.667 402.167,312.667 401.5,312C 400.5,310.333 399.5,308.667 398.5,307C 400.405,306.174 400.739,305.007 399.5,303.5C 398.232,304.428 396.899,304.595 395.5,304C 396.833,303.333 396.833,302.667 395.5,302C 396.731,300.595 398.064,299.429 399.5,298.5C 399.953,297.542 400.619,296.708 401.5,296C 409.281,293.29 417.281,290.957 425.5,289C 431.513,288.761 437.346,287.928 443,286.5C 446.797,287.571 450.297,287.238 453.5,285.5C 463.899,287.202 474.232,289.202 484.5,291.5C 485.442,291.392 486.275,291.059 487,290.5C 494.555,293.185 502.055,296.185 509.5,299.5C 515.167,302.69 520.667,306.023 526,309.5C 530.148,308.509 533.981,306.842 537.5,304.5 Z"/></g>
<g><path style="opacity:1" fill="#583c21" d="M 478.5,313.5 C 481.625,316.787 483.291,320.787 483.5,325.5C 480.776,331.715 476.776,336.882 471.5,341C 462.747,344.051 453.747,345.884 444.5,346.5C 435.965,344.752 427.632,342.586 419.5,340C 415.109,337.026 411.775,333.192 409.5,328.5C 409.443,327.391 409.11,326.391 408.5,325.5C 411.458,326.541 414.458,326.541 417.5,325.5C 417.238,324.022 417.571,322.689 418.5,321.5C 420.609,320.35 422.609,319.016 424.5,317.5C 426.39,317.869 427.224,318.869 427,320.5C 424.635,321.289 422.468,322.456 420.5,324C 424.086,324.691 427.419,324.024 430.5,322C 431.641,321.259 431.641,320.425 430.5,319.5C 432.108,318.682 433.775,318.015 435.5,317.5C 436.273,319.813 436.94,322.146 437.5,324.5C 435.473,325.693 433.973,327.36 433,329.5C 432.107,330.081 431.107,330.415 430,330.5C 427.038,329.646 424.205,328.813 421.5,328C 420.692,328.308 420.025,328.808 419.5,329.5C 420.833,330.167 422.167,330.833 423.5,331.5C 421.49,332.065 419.824,333.065 418.5,334.5C 418.667,334.833 418.833,335.167 419,335.5C 424.351,333.412 429.851,331.745 435.5,330.5C 437.62,331.872 438.62,331.205 438.5,328.5C 440.512,327.986 442.512,327.82 444.5,328C 442.595,328.826 442.261,329.993 443.5,331.5C 445.575,333.064 447.908,334.064 450.5,334.5C 452.351,332.816 454.018,330.983 455.5,329C 455.167,328 454.833,327 454.5,326C 456.367,325.289 457.867,325.789 459,327.5C 460.586,326.624 462.086,325.624 463.5,324.5C 463.498,326.741 463.832,329.074 464.5,331.5C 466.507,329.992 468.174,328.158 469.5,326C 471.776,326.574 474.109,326.408 476.5,325.5C 477.353,321.287 478.019,317.287 478.5,313.5 Z"/></g>
<g><path style="opacity:1" fill="#ecc092" d="M 591.5,286.5 C 593.044,286.703 594.378,287.37 595.5,288.5C 596.852,287.104 598.519,286.437 600.5,286.5C 603.889,286.953 607.223,287.62 610.5,288.5C 611.183,288.137 611.85,287.804 612.5,287.5C 613.643,287.908 614.643,288.575 615.5,289.5C 613.096,290.35 610.763,291.35 608.5,292.5C 607.691,294.071 607.357,295.738 607.5,297.5C 610.349,298.591 613.182,298.591 616,297.5C 617.171,298.34 618.338,299.173 619.5,300C 617.432,300.687 615.432,300.52 613.5,299.5C 613.167,299.833 612.833,300.167 612.5,300.5C 613.376,301.251 614.376,301.751 615.5,302C 613.82,302.347 612.82,303.347 612.5,305C 612.611,306.722 613.111,306.888 614,305.5C 614.192,307.577 614.692,309.577 615.5,311.5C 616.167,310.833 616.833,310.167 617.5,309.5C 618.349,311.51 617.682,313.177 615.5,314.5C 615.833,314.833 616.167,315.167 616.5,315.5C 617.591,313.985 618.924,313.152 620.5,313C 619.594,314.699 619.261,316.533 619.5,318.5C 620.833,318.5 622.167,318.5 623.5,318.5C 622.833,321.167 622.167,323.833 621.5,326.5C 620.448,326.351 619.448,326.517 618.5,327C 620.901,327.805 620.734,328.638 618,329.5C 617.89,332.646 616.557,333.646 614,332.5C 611.724,334.307 611.557,335.807 613.5,337C 612.809,338.067 612.309,339.234 612,340.5C 611.667,340.167 611.333,339.833 611,339.5C 610.316,340.784 610.483,341.951 611.5,343C 609.893,344.049 609.227,345.549 609.5,347.5C 608.167,347.5 606.833,347.5 605.5,347.5C 605.67,346.178 605.337,345.011 604.5,344C 605.549,343.508 606.549,343.674 607.5,344.5C 608.88,341.682 608.713,339.015 607,336.5C 605.488,338.957 604.154,338.957 603,336.5C 602.581,337.672 601.915,338.672 601,339.5C 599.186,338.24 597.353,338.24 595.5,339.5C 597.104,340.603 598.104,342.103 598.5,344C 597.81,345.921 597.476,347.755 597.5,349.5C 596.28,349.113 595.613,348.28 595.5,347C 596.187,345.838 596.353,344.672 596,343.5C 594.301,344.406 592.467,344.739 590.5,344.5C 590.297,346.39 590.963,347.89 592.5,349C 592,349.5 591.5,350 591,350.5C 587.463,348.5 583.63,347.166 579.5,346.5C 578.587,341.586 576.92,341.253 574.5,345.5C 574.003,343.784 573.669,342.117 573.5,340.5C 569.581,342.421 566.747,341.421 565,337.5C 564.085,338.328 563.419,339.328 563,340.5C 562.667,339.5 562.333,338.5 562,337.5C 561.072,339.335 559.906,339.668 558.5,338.5C 556.766,340.234 555.432,342.234 554.5,344.5C 553.001,342.198 551.668,342.531 550.5,345.5C 550.167,344.833 549.833,344.167 549.5,343.5C 550.833,341.5 552.167,339.5 553.5,337.5C 552.609,336.41 551.609,336.41 550.5,337.5C 547.778,335.044 547.944,334.377 551,335.5C 551.251,333.567 551.751,331.734 552.5,330C 552,329.5 551.5,329 551,328.5C 550.751,329.624 550.251,330.624 549.5,331.5C 548.8,327.959 548.133,324.459 547.5,321C 545.5,321.333 543.5,321.667 541.5,322C 542.059,321.275 542.392,320.442 542.5,319.5C 541.502,317.388 540.169,316.388 538.5,316.5C 539.167,315.833 539.833,315.167 540.5,314.5C 539.045,312.78 538.212,310.78 538,308.5C 536.933,307.809 535.766,307.309 534.5,307C 535.942,306.623 536.942,305.79 537.5,304.5C 544.398,299.695 552.065,296.362 560.5,294.5C 562.92,294.292 565.253,294.626 567.5,295.5C 571.789,291.553 576.122,291.22 580.5,294.5C 580.135,295.902 579.301,296.902 578,297.5C 575.304,295.914 572.638,295.247 570,295.5C 569.833,295.833 569.667,296.167 569.5,296.5C 570.908,297.243 572.241,298.077 573.5,299C 572.027,299.71 571.36,300.876 571.5,302.5C 570.022,302.238 568.689,302.571 567.5,303.5C 568.989,303.533 570.322,304.033 571.5,305C 570.892,305.87 570.059,306.37 569,306.5C 565.083,305.559 562.916,307.226 562.5,311.5C 554.218,310.978 553.551,313.144 560.5,318C 558.833,318.333 557.167,318.667 555.5,319C 557.625,320.498 559.959,320.664 562.5,319.5C 564.299,319.577 565.966,320.077 567.5,321C 567.937,323.449 567.937,325.783 567.5,328C 570.232,328.905 570.899,328.238 569.5,326C 569.862,324.775 570.362,323.609 571,322.5C 571.626,324.991 572.459,324.991 573.5,322.5C 574.703,325.633 576.537,328.299 579,330.5C 582.593,328.587 586.093,327.254 589.5,326.5C 591.778,326.781 592.945,328.115 593,330.5C 593.677,328.311 594.844,327.978 596.5,329.5C 600.867,327.771 602.2,324.771 600.5,320.5C 601.833,320.167 603.167,319.833 604.5,319.5C 602.725,318.043 600.725,316.876 598.5,316C 600.167,315.667 601.833,315.333 603.5,315C 602.167,314 602.167,313 603.5,312C 602.833,311.667 602.167,311.333 601.5,311C 609.224,310.286 609.391,308.786 602,306.5C 600.715,306.95 599.548,307.617 598.5,308.5C 598.167,308.167 597.833,307.833 597.5,307.5C 598.757,304.177 598.757,300.844 597.5,297.5C 595.5,298.167 593.5,298.833 591.5,299.5C 589.614,298.07 587.947,296.403 586.5,294.5C 584.726,293.813 583.059,292.98 581.5,292C 585.627,291.44 588.96,289.607 591.5,286.5 Z"/></g>
<g><path style="opacity:1" fill="#52371e" d="M 478.5,313.5 C 478.019,317.287 477.353,321.287 476.5,325.5C 474.109,326.408 471.776,326.574 469.5,326C 468.174,328.158 466.507,329.992 464.5,331.5C 463.832,329.074 463.498,326.741 463.5,324.5C 462.086,325.624 460.586,326.624 459,327.5C 457.867,325.789 456.367,325.289 454.5,326C 454.833,327 455.167,328 455.5,329C 454.018,330.983 452.351,332.816 450.5,334.5C 447.908,334.064 445.575,333.064 443.5,331.5C 442.261,329.993 442.595,328.826 444.5,328C 442.512,327.82 440.512,327.986 438.5,328.5C 438.62,331.205 437.62,331.872 435.5,330.5C 429.851,331.745 424.351,333.412 419,335.5C 418.833,335.167 418.667,334.833 418.5,334.5C 419.824,333.065 421.49,332.065 423.5,331.5C 422.167,330.833 420.833,330.167 419.5,329.5C 420.025,328.808 420.692,328.308 421.5,328C 424.205,328.813 427.038,329.646 430,330.5C 431.107,330.415 432.107,330.081 433,329.5C 433.973,327.36 435.473,325.693 437.5,324.5C 436.94,322.146 436.273,319.813 435.5,317.5C 433.775,318.015 432.108,318.682 430.5,319.5C 431.641,320.425 431.641,321.259 430.5,322C 427.419,324.024 424.086,324.691 420.5,324C 422.468,322.456 424.635,321.289 427,320.5C 427.224,318.869 426.39,317.869 424.5,317.5C 422.609,319.016 420.609,320.35 418.5,321.5C 417.571,322.689 417.238,324.022 417.5,325.5C 414.458,326.541 411.458,326.541 408.5,325.5C 409.119,322.006 409.786,318.506 410.5,315C 413.151,313.426 415.484,311.593 417.5,309.5C 425.103,307.334 432.936,305.667 441,304.5C 445.488,305.131 449.988,304.797 454.5,303.5C 457.012,305.467 459.679,305.8 462.5,304.5C 467.904,307.51 473.237,310.51 478.5,313.5 Z"/></g>
<g><path style="opacity:1" fill="#ebb88c" d="M 591.5,286.5 C 588.96,289.607 585.627,291.44 581.5,292C 583.059,292.98 584.726,293.813 586.5,294.5C 587.947,296.403 589.614,298.07 591.5,299.5C 593.5,298.833 595.5,298.167 597.5,297.5C 598.757,300.844 598.757,304.177 597.5,307.5C 597.833,307.833 598.167,308.167 598.5,308.5C 599.548,307.617 600.715,306.95 602,306.5C 609.391,308.786 609.224,310.286 601.5,311C 602.167,311.333 602.833,311.667 603.5,312C 602.167,313 602.167,314 603.5,315C 601.833,315.333 600.167,315.667 598.5,316C 600.725,316.876 602.725,318.043 604.5,319.5C 603.167,319.833 601.833,320.167 600.5,320.5C 602.2,324.771 600.867,327.771 596.5,329.5C 594.844,327.978 593.677,328.311 593,330.5C 592.945,328.115 591.778,326.781 589.5,326.5C 586.093,327.254 582.593,328.587 579,330.5C 576.537,328.299 574.703,325.633 573.5,322.5C 572.459,324.991 571.626,324.991 571,322.5C 570.362,323.609 569.862,324.775 569.5,326C 570.899,328.238 570.232,328.905 567.5,328C 567.937,325.783 567.937,323.449 567.5,321C 565.966,320.077 564.299,319.577 562.5,319.5C 559.959,320.664 557.625,320.498 555.5,319C 557.167,318.667 558.833,318.333 560.5,318C 553.551,313.144 554.218,310.978 562.5,311.5C 562.916,307.226 565.083,305.559 569,306.5C 570.059,306.37 570.892,305.87 571.5,305C 570.322,304.033 568.989,303.533 567.5,303.5C 568.689,302.571 570.022,302.238 571.5,302.5C 571.36,300.876 572.027,299.71 573.5,299C 572.241,298.077 570.908,297.243 569.5,296.5C 569.667,296.167 569.833,295.833 570,295.5C 572.638,295.247 575.304,295.914 578,297.5C 579.301,296.902 580.135,295.902 580.5,294.5C 576.122,291.22 571.789,291.553 567.5,295.5C 565.253,294.626 562.92,294.292 560.5,294.5C 562.851,292.38 565.518,291.713 568.5,292.5C 576.092,290.18 583.758,288.18 591.5,286.5 Z"/></g>
<g><path style="opacity:1" fill="#ecc395" d="M 382.5,301.5 C 385.073,302.555 387.739,302.722 390.5,302C 392.838,299.169 395.838,298.003 399.5,298.5C 398.064,299.429 396.731,300.595 395.5,302C 396.833,302.667 396.833,303.333 395.5,304C 396.899,304.595 398.232,304.428 399.5,303.5C 400.739,305.007 400.405,306.174 398.5,307C 399.5,308.667 400.5,310.333 401.5,312C 402.167,312.667 402.833,312.667 403.5,312C 402.179,310.455 402.512,309.289 404.5,308.5C 405.76,310.353 405.76,312.186 404.5,314C 405.025,314.692 405.692,315.192 406.5,315.5C 407.731,314.349 407.731,313.183 406.5,312C 408.607,310.736 409.607,308.903 409.5,306.5C 412.776,306.144 415.443,307.144 417.5,309.5C 415.484,311.593 413.151,313.426 410.5,315C 409.786,318.506 409.119,322.006 408.5,325.5C 409.11,326.391 409.443,327.391 409.5,328.5C 408.141,327.993 407.141,326.993 406.5,325.5C 405.784,327.482 404.617,329.149 403,330.5C 400.888,328.364 401.055,326.364 403.5,324.5C 402.289,323.28 402.289,322.113 403.5,321C 401.527,320.505 399.527,320.338 397.5,320.5C 397.719,321.675 397.386,322.675 396.5,323.5C 395.618,322.24 394.618,321.074 393.5,320C 394.167,319.667 394.833,319.333 395.5,319C 394.903,317.111 394.569,315.278 394.5,313.5C 393.833,313.833 393.167,314.167 392.5,314.5C 391.191,312.109 390.191,312.109 389.5,314.5C 390.198,315.863 390.198,317.029 389.5,318C 390.167,318.333 390.833,318.667 391.5,319C 390.09,319.368 389.09,320.201 388.5,321.5C 389.274,322.711 390.107,322.711 391,321.5C 390.771,324.81 392.271,326.644 395.5,327C 394.62,328.356 394.286,329.856 394.5,331.5C 391.478,331.428 389.312,332.762 388,335.5C 387.311,334.643 386.478,333.977 385.5,333.5C 383.976,335.858 381.976,337.691 379.5,339C 380.973,339.71 381.64,340.876 381.5,342.5C 382.873,342.343 384.207,342.51 385.5,343C 380.36,344.949 380.36,346.783 385.5,348.5C 383.516,349.706 381.516,349.706 379.5,348.5C 377.417,350.875 374.75,352.208 371.5,352.5C 365.964,350.312 360.631,347.646 355.5,344.5C 354.643,345.736 353.977,347.069 353.5,348.5C 355.04,349.532 355.54,350.865 355,352.5C 353.33,350.302 351.33,349.968 349,351.5C 347.484,348.994 345.318,348.16 342.5,349C 343.938,349.219 345.271,349.719 346.5,350.5C 344.263,351.132 342.597,352.465 341.5,354.5C 340.24,352.647 340.24,350.814 341.5,349C 338.894,348.55 337.561,347.05 337.5,344.5C 336.5,344.5 335.5,344.5 334.5,344.5C 335.449,346.737 336.116,349.071 336.5,351.5C 335.5,351.5 334.5,351.5 333.5,351.5C 332.92,347.858 332.42,344.191 332,340.5C 331.107,341.711 330.274,341.711 329.5,340.5C 332.28,337.718 331.78,335.718 328,334.5C 326.699,335.893 325.199,336.393 323.5,336C 324.16,332.5 322.493,331 318.5,331.5C 318.579,332.93 318.246,334.264 317.5,335.5C 316.726,336.711 315.893,336.711 315,335.5C 315,332.167 315,328.833 315,325.5C 314.329,324.748 313.496,324.414 312.5,324.5C 314.835,313.183 320.502,303.85 329.5,296.5C 330.95,295.15 331.617,293.484 331.5,291.5C 333.861,291.326 336.194,290.993 338.5,290.5C 338.5,291.5 338.5,292.5 338.5,293.5C 341.807,293.063 344.807,293.73 347.5,295.5C 347.065,297.997 345.731,299.163 343.5,299C 342.213,297.59 341.046,296.09 340,294.5C 337.918,297.872 336.085,301.372 334.5,305C 332.791,306.545 330.791,307.378 328.5,307.5C 326.001,306.007 324.334,306.507 323.5,309C 322.049,308.737 320.716,308.904 319.5,309.5C 321.076,313.238 323.243,316.571 326,319.5C 328.237,318.944 330.237,317.944 332,316.5C 332.167,316.833 332.333,317.167 332.5,317.5C 331.167,318.5 331.167,319.5 332.5,320.5C 330.604,321.9 329.271,323.733 328.5,326C 328.759,327.261 329.426,328.261 330.5,329C 329.061,329.991 328.061,331.324 327.5,333C 331.882,333.003 333.549,335.169 332.5,339.5C 334.429,339.769 336.095,339.269 337.5,338C 333.661,335.401 334.328,334.234 339.5,334.5C 339.5,333.167 339.5,331.833 339.5,330.5C 340.5,330.5 341.5,330.5 342.5,330.5C 344.203,337.514 348.703,341.514 356,342.5C 358.894,340.29 362.061,339.124 365.5,339C 363.697,339.637 362.364,340.803 361.5,342.5C 363.218,345.014 365.551,345.847 368.5,345C 365.978,343.314 366.311,341.981 369.5,341C 371.5,341 373.5,341 375.5,341C 374.624,339.415 373.291,338.415 371.5,338C 372.609,337.362 373.775,336.862 375,336.5C 379.451,337.268 379.618,336.268 375.5,333.5C 378.205,331.488 380.872,329.488 383.5,327.5C 381.555,327.426 379.722,327.426 378,327.5C 376.273,327.646 376.106,328.313 377.5,329.5C 376.311,330.429 374.978,330.762 373.5,330.5C 373.383,328.516 374.05,326.85 375.5,325.5C 376.274,324.289 377.107,324.289 378,325.5C 378.346,323.782 378.846,322.115 379.5,320.5C 378.603,320.331 377.603,319.998 376.5,319.5C 378.523,318.145 380.523,317.812 382.5,318.5C 382.669,317.603 383.002,316.603 383.5,315.5C 385.042,314.253 386.542,314.253 388,315.5C 387.345,312.441 388.178,309.607 390.5,307C 390.354,305.273 389.687,305.106 388.5,306.5C 387.833,305.5 387.167,304.5 386.5,303.5C 384.134,304.984 382.801,304.317 382.5,301.5 Z"/></g>
<g><path style="opacity:1" fill="#c75a4f" d="M 406.5,369.5 C 412.612,370.613 415.946,374.28 416.5,380.5C 418.833,382.167 420.833,384.167 422.5,386.5C 433.637,389.627 442.637,386.46 449.5,377C 451.684,376.133 453.851,375.299 456,374.5C 461.442,377.483 466.275,381.316 470.5,386C 473.119,386.151 475.453,386.985 477.5,388.5C 479.167,387.833 480.833,387.167 482.5,386.5C 488.382,386.882 493.215,384.549 497,379.5C 497.225,371.259 501.058,368.759 508.5,372C 511.313,376.743 510.98,381.243 507.5,385.5C 504.299,388.202 501.632,391.369 499.5,395C 495.209,394.792 491.542,396.125 488.5,399C 476.385,400.474 465.718,397.307 456.5,389.5C 453.791,392.117 450.791,394.283 447.5,396C 443.96,396.734 440.627,397.901 437.5,399.5C 423.723,401.866 412.89,397.199 405,385.5C 403.946,382.567 402.78,379.734 401.5,377C 401.831,373.52 403.498,371.02 406.5,369.5 Z"/></g>
<g><path style="opacity:1" fill="#4a4d51" d="M 377.5,408.5 C 379.39,408.297 380.89,408.963 382,410.5C 383.5,413.667 385,416.833 386.5,420C 384.945,422.331 385.279,424.331 387.5,426C 386.792,430.021 387.625,433.854 390,437.5C 390.667,441.5 391.333,445.5 392,449.5C 392.667,450.167 393.333,450.833 394,451.5C 398.309,469.443 402.642,487.443 407,505.5C 410.878,511.344 412.045,517.677 410.5,524.5C 411.48,525.981 412.647,527.315 414,528.5C 414.253,531.79 415.253,534.79 417,537.5C 420.526,548.473 423.193,559.807 425,571.5C 427.333,574.239 428.167,577.239 427.5,580.5C 428.108,583.145 428.608,585.812 429,588.5C 430.902,593.37 432.736,598.037 434.5,602.5C 434.992,606.457 434.325,610.123 432.5,613.5C 431.224,614.645 429.891,614.645 428.5,613.5C 427.52,612.019 426.353,610.685 425,609.5C 423.459,603.256 422.459,596.922 422,590.5C 421,589.5 420,588.5 419,587.5C 413.03,567.296 408.03,546.962 404,526.5C 401.397,524.051 400.897,521.218 402.5,518C 398.759,517.597 397.759,515.764 399.5,512.5C 398.352,509.711 397.019,507.044 395.5,504.5C 396.52,502.568 396.687,500.568 396,498.5C 393.39,491.786 391.223,484.953 389.5,478C 390.525,475.172 389.859,472.672 387.5,470.5C 387.931,469.707 388.265,468.873 388.5,468C 386.393,461.116 384.059,454.283 381.5,447.5C 381.931,446.707 382.265,445.873 382.5,445C 380.279,441.954 378.779,438.787 378,435.5C 377.244,430.439 376.411,425.439 375.5,420.5C 377.847,421.76 379.68,421.094 381,418.5C 382.419,414.082 381.252,410.749 377.5,408.5 Z"/></g>
<g><path style="opacity:1" fill="#756a5a" d="M 395.5,432.5 C 397.37,435.809 398.37,439.475 398.5,443.5C 397.606,441.692 396.606,439.858 395.5,438C 396.149,436.31 396.149,434.477 395.5,432.5 Z"/></g>
<g><path style="opacity:0.992" fill="#0b592f" d="M 613.5,444.5 C 625.518,444.917 637.518,447.084 649.5,451C 657.892,454.725 664.392,460.559 669,468.5C 671.759,474.747 673.593,481.08 674.5,487.5C 673.557,489.472 673.224,491.305 673.5,493C 674.517,499.301 675.517,505.634 676.5,512C 675.99,514.706 675.323,517.373 674.5,520C 677.88,527.221 678.214,534.554 675.5,542C 676.293,543.085 676.96,544.252 677.5,545.5C 677.702,549.055 677.369,552.722 676.5,556.5C 677.04,557.748 677.707,558.915 678.5,560C 677.107,563.489 676.773,566.989 677.5,570.5C 671.621,572.019 665.621,572.352 659.5,571.5C 658.5,571.5 657.5,571.5 656.5,571.5C 651.5,571.5 646.5,571.5 641.5,571.5C 638.167,571.5 634.833,571.5 631.5,571.5C 631.196,570.85 630.863,570.183 630.5,569.5C 632.196,567.44 633.363,565.107 634,562.5C 634.531,556.829 635.031,551.162 635.5,545.5C 637.966,541.092 637.966,536.759 635.5,532.5C 635.023,526.783 635.023,521.117 635.5,515.5C 634.171,511.428 632.838,507.428 631.5,503.5C 631.987,502.554 632.32,501.554 632.5,500.5C 629.816,489.954 626.65,479.621 623,469.5C 620.344,465.583 618.678,461.25 618,456.5C 616.834,453.497 615.167,450.83 613,448.5C 612.421,447.072 612.588,445.738 613.5,444.5 Z"/></g>
<g><path style="opacity:1" fill="#ae7d46" d="M 575.5,433.5 C 576.376,433.369 577.043,433.702 577.5,434.5C 572.567,442.264 565.9,448.097 557.5,452C 552.615,456.529 546.948,459.862 540.5,462C 532.019,464.46 523.519,466.96 515,469.5C 514.127,469.265 513.293,468.931 512.5,468.5C 509.891,469.23 507.224,469.73 504.5,470C 495.108,470.226 485.774,470.393 476.5,470.5C 466.562,466.53 456.896,462.03 447.5,457C 445.649,455.316 443.982,453.483 442.5,451.5C 446.97,451.121 451.303,450.788 455.5,450.5C 459.243,452.066 462.576,451.399 465.5,448.5C 466.833,449.167 468.167,449.833 469.5,450.5C 472.62,449.674 475.787,449.007 479,448.5C 492.829,451.498 506.329,450.498 519.5,445.5C 525.059,445.81 530.559,445.81 536,445.5C 539.8,443.371 543.8,441.704 548,440.5C 548.561,441.022 549.228,441.355 550,441.5C 553.555,440.306 557.055,438.972 560.5,437.5C 562.098,438.485 563.765,438.651 565.5,438C 568.523,435.811 571.856,434.311 575.5,433.5 Z"/></g>
<g><path style="opacity:1" fill="#edc086" d="M 550.5,517.5 C 541.491,518.053 532.491,518.053 523.5,517.5C 510.65,520.046 497.983,523.213 485.5,527C 481.316,531.51 476.316,534.843 470.5,537C 468.513,538.319 467.346,540.152 467,542.5C 465.559,543.87 463.892,544.87 462,545.5C 460.802,550.758 458.635,555.591 455.5,560C 456.218,563.639 458.218,566.139 461.5,567.5C 461.784,569.415 461.451,571.081 460.5,572.5C 451.472,572.379 442.472,572.379 433.5,572.5C 431.877,569.785 431.21,566.785 431.5,563.5C 430.506,549.638 432.673,536.305 438,523.5C 441.225,521.403 443.225,518.403 444,514.5C 447.333,512.17 450.167,509.337 452.5,506C 457.322,502.754 462.322,499.754 467.5,497C 475.18,496.106 482.347,493.606 489,489.5C 489.95,490.022 490.784,490.689 491.5,491.5C 500.818,489.667 510.151,489.5 519.5,491C 524.716,493.52 530.05,495.853 535.5,498C 537.913,500.333 540.246,502.667 542.5,505C 543.5,505.333 544.5,505.667 545.5,506C 548.881,509.37 550.547,513.203 550.5,517.5 Z"/></g>
<g><path style="opacity:1" fill="#785d3f" d="M 415.5,506.5 C 416.234,509.677 417.234,512.844 418.5,516C 418.472,517.07 418.139,517.903 417.5,518.5C 415.861,514.747 415.194,510.747 415.5,506.5 Z"/></g>
<g><path style="opacity:1" fill="#af7e46" d="M 550.5,517.5 C 552.844,518.672 555.177,518.672 557.5,517.5C 560.761,518.178 564.094,519.178 567.5,520.5C 570.103,519.438 572.77,519.272 575.5,520C 580.752,521.99 586.086,522.657 591.5,522C 593.043,523.878 594.876,525.378 597,526.5C 597.944,529.347 597.444,531.847 595.5,534C 589.787,535.706 584.121,535.206 578.5,532.5C 573.645,531.347 568.811,531.347 564,532.5C 558.447,529.322 552.78,528.988 547,531.5C 538.012,530.659 529.012,530.325 520,530.5C 515.224,531.842 510.39,532.675 505.5,533C 501.554,533.533 498.388,535.366 496,538.5C 491.048,537.457 486.881,538.957 483.5,543C 482.552,543.483 481.552,543.649 480.5,543.5C 476.183,549.454 472.35,555.787 469,562.5C 466.856,564.919 464.356,566.586 461.5,567.5C 458.218,566.139 456.218,563.639 455.5,560C 458.635,555.591 460.802,550.758 462,545.5C 463.892,544.87 465.559,543.87 467,542.5C 467.346,540.152 468.513,538.319 470.5,537C 476.316,534.843 481.316,531.51 485.5,527C 497.983,523.213 510.65,520.046 523.5,517.5C 532.491,518.053 541.491,518.053 550.5,517.5 Z"/></g>
<g><path style="opacity:1" fill="#866542" d="M 417.5,519.5 C 418.458,519.953 419.292,520.619 420,521.5C 420.497,523.81 420.663,526.143 420.5,528.5C 419.054,525.746 418.054,522.746 417.5,519.5 Z"/></g>
<g><path style="opacity:1" fill="#d69754" d="M 598.5,424.5 C 603.435,431.118 608.435,437.784 613.5,444.5C 612.588,445.738 612.421,447.072 613,448.5C 615.167,450.83 616.834,453.497 618,456.5C 618.678,461.25 620.344,465.583 623,469.5C 626.65,479.621 629.816,489.954 632.5,500.5C 632.32,501.554 631.987,502.554 631.5,503.5C 632.838,507.428 634.171,511.428 635.5,515.5C 635.023,521.117 635.023,526.783 635.5,532.5C 634.689,537.006 634.689,541.34 635.5,545.5C 635.031,551.162 634.531,556.829 634,562.5C 633.363,565.107 632.196,567.44 630.5,569.5C 630.863,570.183 631.196,570.85 631.5,571.5C 629.799,576.263 627.132,580.263 623.5,583.5C 622.71,584.794 621.71,585.961 620.5,587C 613.008,589.036 605.674,591.369 598.5,594C 594.104,594.066 589.77,594.232 585.5,594.5C 581.888,591.653 578.721,591.986 576,595.5C 575.329,594.748 574.496,594.414 573.5,594.5C 572.848,593.275 571.681,592.608 570,592.5C 563.74,591.972 557.573,590.972 551.5,589.5C 548.717,592.351 546.384,592.017 544.5,588.5C 542.139,589.776 539.972,589.442 538,587.5C 533.894,588.422 529.727,589.256 525.5,590C 524.619,590.708 523.953,591.542 523.5,592.5C 523.047,593.458 522.381,594.292 521.5,595C 513.08,598.717 504.413,601.55 495.5,603.5C 486.403,601.698 477.403,599.865 468.5,598C 467.619,597.292 466.953,596.458 466.5,595.5C 464.924,592.688 463.09,590.022 461,587.5C 460.506,585.866 460.34,584.199 460.5,582.5C 461.239,579.348 461.239,576.015 460.5,572.5C 461.451,571.081 461.784,569.415 461.5,567.5C 464.356,566.586 466.856,564.919 469,562.5C 472.35,555.787 476.183,549.454 480.5,543.5C 481.552,543.649 482.552,543.483 483.5,543C 486.881,538.957 491.048,537.457 496,538.5C 498.388,535.366 501.554,533.533 505.5,533C 510.39,532.675 515.224,531.842 520,530.5C 529.012,530.325 538.012,530.659 547,531.5C 552.78,528.988 558.447,529.322 564,532.5C 568.811,531.347 573.645,531.347 578.5,532.5C 584.121,535.206 589.787,535.706 595.5,534C 597.444,531.847 597.944,529.347 597,526.5C 594.876,525.378 593.043,523.878 591.5,522C 586.086,522.657 580.752,521.99 575.5,520C 572.77,519.272 570.103,519.438 567.5,520.5C 564.094,519.178 560.761,518.178 557.5,517.5C 555.177,518.672 552.844,518.672 550.5,517.5C 550.547,513.203 548.881,509.37 545.5,506C 544.5,505.667 543.5,505.333 542.5,505C 540.246,502.667 537.913,500.333 535.5,498C 530.05,495.853 524.716,493.52 519.5,491C 510.151,489.5 500.818,489.667 491.5,491.5C 490.784,490.689 489.95,490.022 489,489.5C 482.347,493.606 475.18,496.106 467.5,497C 462.322,499.754 457.322,502.754 452.5,506C 450.167,509.337 447.333,512.17 444,514.5C 443.225,518.403 441.225,521.403 438,523.5C 432.673,536.305 430.506,549.638 431.5,563.5C 430.442,562.4 429.608,561.066 429,559.5C 427.206,553.287 425.873,546.954 425,540.5C 423.615,539.449 422.615,538.116 422,536.5C 421.817,533.635 421.317,530.969 420.5,528.5C 420.663,526.143 420.497,523.81 420,521.5C 419.292,520.619 418.458,519.953 417.5,519.5C 417.5,519.167 417.5,518.833 417.5,518.5C 418.139,517.903 418.472,517.07 418.5,516C 417.234,512.844 416.234,509.677 415.5,506.5C 414.918,505.069 414.085,503.736 413,502.5C 411.915,497.563 411.248,492.563 411,487.5C 408.832,486.371 408.332,484.871 409.5,483C 405.066,476.087 403.732,468.587 405.5,460.5C 406.816,456.685 408.483,452.685 410.5,448.5C 412.044,448.297 413.378,447.63 414.5,446.5C 422.758,447.96 431.091,448.96 439.5,449.5C 444.933,448.086 450.266,448.419 455.5,450.5C 451.303,450.788 446.97,451.121 442.5,451.5C 443.982,453.483 445.649,455.316 447.5,457C 456.896,462.03 466.562,466.53 476.5,470.5C 485.774,470.393 495.108,470.226 504.5,470C 507.224,469.73 509.891,469.23 512.5,468.5C 513.293,468.931 514.127,469.265 515,469.5C 523.519,466.96 532.019,464.46 540.5,462C 546.948,459.862 552.615,456.529 557.5,452C 565.9,448.097 572.567,442.264 577.5,434.5C 577.043,433.702 576.376,433.369 575.5,433.5C 583.246,430.649 590.913,427.649 598.5,424.5 Z"/></g>
<g><path style="opacity:1" fill="#99864a" d="M 635.5,532.5 C 637.966,536.759 637.966,541.092 635.5,545.5C 634.689,541.34 634.689,537.006 635.5,532.5 Z"/></g>
<g><path style="opacity:1" fill="#282c30" d="M 321.5,399.5 C 324.391,400.403 327.391,400.736 330.5,400.5C 333.421,401.719 336.588,402.386 340,402.5C 348.481,402.775 356.981,402.442 365.5,401.5C 367.044,401.297 368.378,400.63 369.5,399.5C 374.339,401.502 379.339,403.002 384.5,404C 385.219,406.556 386.886,407.723 389.5,407.5C 389.337,409.857 389.503,412.19 390,414.5C 392.312,420.419 394.146,426.419 395.5,432.5C 396.149,434.477 396.149,436.31 395.5,438C 396.606,439.858 397.606,441.692 398.5,443.5C 398.427,445.027 399.094,446.027 400.5,446.5C 400.821,450.218 402.154,453.885 404.5,457.5C 402.896,460.125 403.23,461.125 405.5,460.5C 403.732,468.587 405.066,476.087 409.5,483C 408.332,484.871 408.832,486.371 411,487.5C 411.248,492.563 411.915,497.563 413,502.5C 414.085,503.736 414.918,505.069 415.5,506.5C 415.194,510.747 415.861,514.747 417.5,518.5C 417.5,518.833 417.5,519.167 417.5,519.5C 418.054,522.746 419.054,525.746 420.5,528.5C 421.317,530.969 421.817,533.635 422,536.5C 422.615,538.116 423.615,539.449 425,540.5C 425.873,546.954 427.206,553.287 429,559.5C 429.608,561.066 430.442,562.4 431.5,563.5C 431.21,566.785 431.877,569.785 433.5,572.5C 433.461,573.583 433.127,574.583 432.5,575.5C 433.76,578.055 435.094,580.555 436.5,583C 444.567,582.708 452.567,582.542 460.5,582.5C 460.34,584.199 460.506,585.866 461,587.5C 463.09,590.022 464.924,592.688 466.5,595.5C 465.504,595.586 464.671,595.252 464,594.5C 464.046,596.313 463.88,597.979 463.5,599.5C 461.776,598.339 460.11,598.505 458.5,600C 458.833,600.333 459.167,600.667 459.5,601C 456.773,601.818 454.106,601.652 451.5,600.5C 452.167,600.167 452.833,599.833 453.5,599.5C 450.609,598.322 447.609,597.655 444.5,597.5C 444.5,598.5 444.5,599.5 444.5,600.5C 447.329,600.325 448.996,601.658 449.5,604.5C 450.736,605.246 452.07,605.579 453.5,605.5C 453.281,604.325 453.614,603.325 454.5,602.5C 456.117,602.669 457.784,603.003 459.5,603.5C 458.311,604.429 456.978,604.762 455.5,604.5C 454.99,608.527 452.824,609.527 449,607.5C 446.206,610.279 444.539,609.612 444,605.5C 443.259,604.359 442.425,604.359 441.5,605.5C 440.288,603.159 440.622,600.993 442.5,599C 441.167,598.333 439.833,598.333 438.5,599C 439.706,600.018 439.373,600.518 437.5,600.5C 435.065,598.721 434.065,599.387 434.5,602.5C 432.736,598.037 430.902,593.37 429,588.5C 428.608,585.812 428.108,583.145 427.5,580.5C 428.167,577.239 427.333,574.239 425,571.5C 423.193,559.807 420.526,548.473 417,537.5C 415.253,534.79 414.253,531.79 414,528.5C 412.647,527.315 411.48,525.981 410.5,524.5C 412.045,517.677 410.878,511.344 407,505.5C 402.642,487.443 398.309,469.443 394,451.5C 393.333,450.833 392.667,450.167 392,449.5C 391.333,445.5 390.667,441.5 390,437.5C 387.625,433.854 386.792,430.021 387.5,426C 385.279,424.331 384.945,422.331 386.5,420C 385,416.833 383.5,413.667 382,410.5C 380.89,408.963 379.39,408.297 377.5,408.5C 377.167,408.5 376.833,408.5 376.5,408.5C 375.739,407.609 374.739,406.942 373.5,406.5C 359.818,408.732 346.151,408.732 332.5,406.5C 328.987,407.121 325.487,407.787 322,408.5C 320.532,407.372 318.865,406.706 317,406.5C 301.133,407.797 285.133,407.797 269,406.5C 265.5,406.667 262,406.833 258.5,407C 257.892,407.87 257.059,408.37 256,408.5C 252.15,407.869 248.317,407.202 244.5,406.5C 241.348,407.79 238.181,407.79 235,406.5C 233.667,407.167 232.333,407.833 231,408.5C 224.263,407.775 217.596,407.775 211,408.5C 203.253,406.718 195.42,406.718 187.5,408.5C 181.929,406.56 176.262,406.56 170.5,408.5C 164.376,406.567 158.21,405.9 152,406.5C 144.606,408.768 137.106,408.768 129.5,406.5C 124.167,407.167 118.833,407.833 113.5,408.5C 110.463,411.937 111.13,414.437 115.5,416C 129.757,416.451 144.09,416.951 158.5,417.5C 157.923,419.652 156.756,419.985 155,418.5C 154.46,420.135 154.96,421.468 156.5,422.5C 155.5,425.167 154.5,425.167 153.5,422.5C 152.749,423.376 152.249,424.376 152,425.5C 151.259,424.359 150.425,424.359 149.5,425.5C 148.579,423.244 146.912,422.244 144.5,422.5C 144.435,424.696 143.768,426.696 142.5,428.5C 140.677,427.253 138.677,426.586 136.5,426.5C 136.833,423.833 137.167,421.167 137.5,418.5C 134.833,418.167 132.167,417.833 129.5,417.5C 128.624,422.233 126.958,426.566 124.5,430.5C 122.253,429.626 119.92,429.292 117.5,429.5C 117.517,433.377 116.351,434.043 114,431.5C 112.989,432.337 111.822,432.67 110.5,432.5C 108.149,425.187 106.149,417.354 104.5,409C 105.97,403.668 109.47,400.502 115,399.5C 182.679,400.154 251.513,400.154 321.5,399.5 Z"/></g>
<g><path style="opacity:1" fill="#6c6f72" d="M 376.5,408.5 C 376.833,408.5 377.167,408.5 377.5,408.5C 381.252,410.749 382.419,414.082 381,418.5C 379.68,421.094 377.847,421.76 375.5,420.5C 375.167,419.833 374.833,419.167 374.5,418.5C 373.519,416.511 372.519,414.511 371.5,412.5C 371.981,409.686 373.648,408.352 376.5,408.5 Z"/></g>
<g><path style="opacity:1" fill="#4b4f53" d="M 376.5,408.5 C 373.648,408.352 371.981,409.686 371.5,412.5C 372.519,414.511 373.519,416.511 374.5,418.5C 371.745,415.993 368.412,414.993 364.5,415.5C 357.128,416.553 349.795,416.553 342.5,415.5C 339.017,416.207 335.517,416.873 332,417.5C 328.819,416.21 325.652,416.21 322.5,417.5C 319.999,415.353 317.332,415.353 314.5,417.5C 307.982,417.926 301.482,417.259 295,415.5C 286.93,416.741 278.763,417.407 270.5,417.5C 269.452,416.617 268.285,415.95 267,415.5C 262.667,416.833 258.333,416.833 254,415.5C 246.116,416.081 238.283,417.081 230.5,418.5C 222.365,417.475 214.198,416.808 206,416.5C 201.254,417 196.587,417 192,416.5C 190.667,417.167 189.333,417.833 188,418.5C 183.946,417.055 179.78,416.055 175.5,415.5C 174.389,416.611 173.055,417.278 171.5,417.5C 167.238,417.065 162.905,417.065 158.5,417.5C 144.09,416.951 129.757,416.451 115.5,416C 111.13,414.437 110.463,411.937 113.5,408.5C 118.833,407.833 124.167,407.167 129.5,406.5C 137.106,408.768 144.606,408.768 152,406.5C 158.21,405.9 164.376,406.567 170.5,408.5C 176.262,406.56 181.929,406.56 187.5,408.5C 195.42,406.718 203.253,406.718 211,408.5C 217.596,407.775 224.263,407.775 231,408.5C 232.333,407.833 233.667,407.167 235,406.5C 238.181,407.79 241.348,407.79 244.5,406.5C 248.317,407.202 252.15,407.869 256,408.5C 257.059,408.37 257.892,407.87 258.5,407C 262,406.833 265.5,406.667 269,406.5C 285.133,407.797 301.133,407.797 317,406.5C 318.865,406.706 320.532,407.372 322,408.5C 325.487,407.787 328.987,407.121 332.5,406.5C 346.151,408.732 359.818,408.732 373.5,406.5C 374.739,406.942 375.739,407.609 376.5,408.5 Z"/></g>
<g><path style="opacity:1" fill="#625b50" d="M 365.5,401.5 C 356.981,402.442 348.481,402.775 340,402.5C 336.588,402.386 333.421,401.719 330.5,400.5C 333.249,400.274 335.916,400.607 338.5,401.5C 339.688,400.16 341.188,399.493 343,399.5C 349.869,399.631 356.702,399.631 363.5,399.5C 364.522,399.855 365.189,400.522 365.5,401.5 Z"/></g>
<g><path style="opacity:1" fill="#25292e" d="M 374.5,418.5 C 374.833,419.167 375.167,419.833 375.5,420.5C 376.411,425.439 377.244,430.439 378,435.5C 378.779,438.787 380.279,441.954 382.5,445C 382.265,445.873 381.931,446.707 381.5,447.5C 384.059,454.283 386.393,461.116 388.5,468C 388.265,468.873 387.931,469.707 387.5,470.5C 389.859,472.672 390.525,475.172 389.5,478C 391.223,484.953 393.39,491.786 396,498.5C 396.687,500.568 396.52,502.568 395.5,504.5C 397.019,507.044 398.352,509.711 399.5,512.5C 397.759,515.764 398.759,517.597 402.5,518C 400.897,521.218 401.397,524.051 404,526.5C 408.03,546.962 413.03,567.296 419,587.5C 420,588.5 421,589.5 422,590.5C 422.459,596.922 423.459,603.256 425,609.5C 426.353,610.685 427.52,612.019 428.5,613.5C 429.891,614.645 431.224,614.645 432.5,613.5C 434.325,610.123 434.992,606.457 434.5,602.5C 434.065,599.387 435.065,598.721 437.5,600.5C 439.373,600.518 439.706,600.018 438.5,599C 439.833,598.333 441.167,598.333 442.5,599C 440.622,600.993 440.288,603.159 441.5,605.5C 442.425,604.359 443.259,604.359 444,605.5C 444.539,609.612 446.206,610.279 449,607.5C 452.824,609.527 454.99,608.527 455.5,604.5C 456.978,604.762 458.311,604.429 459.5,603.5C 457.784,603.003 456.117,602.669 454.5,602.5C 453.614,603.325 453.281,604.325 453.5,605.5C 452.07,605.579 450.736,605.246 449.5,604.5C 448.996,601.658 447.329,600.325 444.5,600.5C 444.5,599.5 444.5,598.5 444.5,597.5C 447.609,597.655 450.609,598.322 453.5,599.5C 452.833,599.833 452.167,600.167 451.5,600.5C 454.106,601.652 456.773,601.818 459.5,601C 459.167,600.667 458.833,600.333 458.5,600C 460.11,598.505 461.776,598.339 463.5,599.5C 463.88,597.979 464.046,596.313 464,594.5C 464.671,595.252 465.504,595.586 466.5,595.5C 466.953,596.458 467.619,597.292 468.5,598C 477.403,599.865 486.403,601.698 495.5,603.5C 504.413,601.55 513.08,598.717 521.5,595C 522.381,594.292 523.047,593.458 523.5,592.5C 528.995,589.805 534.661,589.305 540.5,591C 541.022,591.561 541.355,592.228 541.5,593C 539.854,595.595 539.187,598.428 539.5,601.5C 540.5,601.5 541.5,601.5 542.5,601.5C 542.5,600.5 542.5,599.5 542.5,598.5C 544.481,599.348 546.481,599.848 548.5,600C 549.517,598.951 549.684,597.784 549,596.5C 548.667,596.833 548.333,597.167 548,597.5C 547.692,596.692 547.192,596.025 546.5,595.5C 541.805,596.532 541.472,595.699 545.5,593C 550.623,591.217 555.623,591.384 560.5,593.5C 563.086,592.781 565.753,592.781 568.5,593.5C 570.333,593.585 571.666,594.252 572.5,595.5C 570.178,597.664 567.511,599.331 564.5,600.5C 561.918,600.025 559.918,600.692 558.5,602.5C 556.374,603.048 554.374,603.715 552.5,604.5C 550.143,604.337 547.81,604.503 545.5,605C 544.619,605.708 543.953,606.542 543.5,607.5C 536.909,609.009 530.243,610.676 523.5,612.5C 520.544,613.137 517.544,613.637 514.5,614C 513.944,614.383 513.611,614.883 513.5,615.5C 512.508,615.328 511.842,615.662 511.5,616.5C 505.364,616.796 499.697,618.463 494.5,621.5C 493.5,621.5 492.5,621.5 491.5,621.5C 487.603,621.726 484.27,623.059 481.5,625.5C 474.712,627.062 468.046,628.729 461.5,630.5C 458.99,630.054 456.99,630.72 455.5,632.5C 446.029,633.84 436.529,634.84 427,635.5C 422.714,633.521 418.547,633.521 414.5,635.5C 412.929,634.691 411.262,634.357 409.5,634.5C 406.362,633.319 403.362,633.319 400.5,634.5C 349.803,633.988 298.803,633.988 247.5,634.5C 242.656,633.735 237.656,633.068 232.5,632.5C 231.584,632.543 230.917,632.876 230.5,633.5C 221.586,633.547 212.586,634.214 203.5,635.5C 196.592,632.985 189.592,632.985 182.5,635.5C 181.817,635.137 181.15,634.804 180.5,634.5C 179.458,633.209 178.292,633.209 177,634.5C 175.007,633.086 172.84,632.086 170.5,631.5C 168.727,629.567 166.561,628.234 164,627.5C 162.242,623.935 161.076,620.268 160.5,616.5C 161.987,614.158 161.654,612.158 159.5,610.5C 157.744,609.448 157.077,607.781 157.5,605.5C 156.534,601.277 155.201,597.277 153.5,593.5C 153.249,591.83 152.582,590.33 151.5,589C 152.727,587.413 152.394,586.079 150.5,585C 151.517,583.951 151.684,582.784 151,581.5C 147.743,579.731 146.91,577.231 148.5,574C 148.114,569.657 146.78,565.657 144.5,562C 144.957,561.586 145.291,561.086 145.5,560.5C 140.654,543.136 135.487,525.802 130,508.5C 129.289,506.101 129.456,503.768 130.5,501.5C 129.095,498.787 127.595,496.121 126,493.5C 125.316,492.216 125.483,491.049 126.5,490C 124.913,486.318 123.747,482.485 123,478.5C 122.333,477.833 121.667,477.167 121,476.5C 120.17,471.857 119.503,467.19 119,462.5C 118,461.167 117,459.833 116,458.5C 115.683,453.4 114.516,448.567 112.5,444C 112.645,442.774 112.978,441.607 113.5,440.5C 112.191,437.917 111.191,435.25 110.5,432.5C 111.822,432.67 112.989,432.337 114,431.5C 116.351,434.043 117.517,433.377 117.5,429.5C 119.92,429.292 122.253,429.626 124.5,430.5C 126.958,426.566 128.624,422.233 129.5,417.5C 132.167,417.833 134.833,418.167 137.5,418.5C 137.167,421.167 136.833,423.833 136.5,426.5C 138.677,426.586 140.677,427.253 142.5,428.5C 143.768,426.696 144.435,424.696 144.5,422.5C 146.912,422.244 148.579,423.244 149.5,425.5C 150.425,424.359 151.259,424.359 152,425.5C 152.249,424.376 152.749,423.376 153.5,422.5C 154.5,425.167 155.5,425.167 156.5,422.5C 154.96,421.468 154.46,420.135 155,418.5C 156.756,419.985 157.923,419.652 158.5,417.5C 162.905,417.065 167.238,417.065 171.5,417.5C 173.055,417.278 174.389,416.611 175.5,415.5C 179.78,416.055 183.946,417.055 188,418.5C 189.333,417.833 190.667,417.167 192,416.5C 196.587,417 201.254,417 206,416.5C 214.198,416.808 222.365,417.475 230.5,418.5C 238.283,417.081 246.116,416.081 254,415.5C 258.333,416.833 262.667,416.833 267,415.5C 268.285,415.95 269.452,416.617 270.5,417.5C 278.763,417.407 286.93,416.741 295,415.5C 301.482,417.259 307.982,417.926 314.5,417.5C 317.332,415.353 319.999,415.353 322.5,417.5C 325.652,416.21 328.819,416.21 332,417.5C 335.517,416.873 339.017,416.207 342.5,415.5C 349.795,416.553 357.128,416.553 364.5,415.5C 368.412,414.993 371.745,415.993 374.5,418.5 Z"/></g>
<g><path style="opacity:1" fill="#4b4f53" d="M 254.5,506.5 C 259.761,506.75 265.095,506.916 270.5,507C 273.085,509.258 275.918,511.091 279,512.5C 280.38,516.088 281.88,519.588 283.5,523C 282.164,525.678 281.33,528.511 281,531.5C 277.208,532.454 275.042,534.787 274.5,538.5C 270.254,538.895 266.087,538.895 262,538.5C 261,539.167 260,539.833 259,540.5C 245.926,537.758 240.259,529.758 242,516.5C 243.878,514.957 245.378,513.124 246.5,511C 249.286,509.499 251.953,507.999 254.5,506.5 Z"/></g>
<g><path style="opacity:1" fill="#76968f" d="M 677.5,570.5 C 677.833,570.5 678.167,570.5 678.5,570.5C 677.708,572.257 676.375,573.591 674.5,574.5C 669.31,573.859 664.31,572.859 659.5,571.5C 665.621,572.352 671.621,572.019 677.5,570.5 Z"/></g>
<g><path style="opacity:1" fill="#aab2b9" d="M 460.5,572.5 C 461.239,576.015 461.239,579.348 460.5,582.5C 452.567,582.542 444.567,582.708 436.5,583C 435.094,580.555 433.76,578.055 432.5,575.5C 433.127,574.583 433.461,573.583 433.5,572.5C 442.472,572.379 451.472,572.379 460.5,572.5 Z"/></g>
<g><path style="opacity:1" fill="#fdfdfd" d="M 623.5,583.5 C 626.09,583.396 628.423,584.063 630.5,585.5C 634.833,584.167 639.167,584.167 643.5,585.5C 646.865,584.925 650.198,584.258 653.5,583.5C 654.548,584.383 655.715,585.05 657,585.5C 661.943,583.52 666.776,583.52 671.5,585.5C 679.779,583.242 688.112,583.242 696.5,585.5C 707.854,583.886 719.187,583.719 730.5,585C 733.785,586.801 735.619,589.635 736,593.5C 736.712,599.028 736.546,604.528 735.5,610C 735.706,611.865 736.372,613.532 737.5,615C 735.229,617.4 733.729,620.233 733,623.5C 727.745,627.21 721.912,629.377 715.5,630C 710.683,630.789 706.349,632.622 702.5,635.5C 700.055,634.035 698.055,634.535 696.5,637C 690.342,637.949 684.342,639.283 678.5,641C 675.956,643.093 672.956,644.093 669.5,644C 663.282,646.853 656.949,649.52 650.5,652C 636.725,655.153 623.058,658.486 609.5,662C 607.709,662.415 606.376,663.415 605.5,665C 599.29,666.722 592.957,667.722 586.5,668C 582.048,672.122 576.714,674.122 570.5,674C 563.507,678.204 556.174,680.538 548.5,681C 542.295,683.135 535.962,684.801 529.5,686C 528.335,687.084 527.002,687.917 525.5,688.5C 519.398,688.469 513.232,687.802 507,686.5C 494.455,685.92 481.455,686.587 468,688.5C 459.876,687.757 451.709,687.757 443.5,688.5C 441.283,687.428 438.95,686.761 436.5,686.5C 422.551,686.776 408.551,687.443 394.5,688.5C 386.175,688.446 377.841,688.446 369.5,688.5C 366.141,687.961 362.807,687.295 359.5,686.5C 344.106,687.187 328.606,687.187 313,686.5C 309.311,687.074 305.644,687.741 302,688.5C 295.933,689.155 289.933,688.488 284,686.5C 282.135,686.706 280.468,687.372 279,688.5C 277,687.167 275,687.167 273,688.5C 271.333,687.833 269.667,687.167 268,686.5C 263.569,685.848 259.235,686.515 255,688.5C 247.666,688.871 240.333,688.204 233,686.5C 228.181,689.004 223.347,689.004 218.5,686.5C 217.452,687.383 216.285,688.05 215,688.5C 201.332,687.767 187.832,687.767 174.5,688.5C 171.176,686.501 167.676,686.501 164,688.5C 158.6,688.468 153.1,688.302 147.5,688C 146.57,687.009 145.404,686.509 144,686.5C 139.495,687.797 134.995,687.797 130.5,686.5C 128.833,687.167 127.167,687.833 125.5,688.5C 112.216,688.038 98.8831,688.038 85.5,688.5C 79.9914,687.859 74.4914,687.192 69,686.5C 54.1991,687.642 39.3657,687.809 24.5,687C 22.2519,683.171 20.2519,679.171 18.5,675C 19.8015,670.507 19.8015,666.007 18.5,661.5C 20.0417,647.777 27.5417,641.11 41,641.5C 42.214,639.951 43.714,638.785 45.5,638C 54.3769,636.613 63.0436,634.613 71.5,632C 85.4093,626.911 99.4093,622.245 113.5,618C 115.235,617.349 116.902,617.515 118.5,618.5C 124.483,614.328 131.15,611.828 138.5,611C 140.001,609.748 141.668,608.748 143.5,608C 148.294,607.653 152.96,606.82 157.5,605.5C 157.077,607.781 157.744,609.448 159.5,610.5C 159.579,611.93 159.246,613.264 158.5,614.5C 158.855,615.522 159.522,616.189 160.5,616.5C 161.076,620.268 162.242,623.935 164,627.5C 166.561,628.234 168.727,629.567 170.5,631.5C 171.028,632.721 171.695,633.887 172.5,635C 175.221,635.602 177.887,635.435 180.5,634.5C 181.15,634.804 181.817,635.137 182.5,635.5C 189.592,632.985 196.592,632.985 203.5,635.5C 212.586,634.214 221.586,633.547 230.5,633.5C 236.075,634.452 241.741,634.786 247.5,634.5C 298.803,633.988 349.803,633.988 400.5,634.5C 403.656,635.551 406.656,635.551 409.5,634.5C 411.262,634.357 412.929,634.691 414.5,635.5C 418.547,633.521 422.714,633.521 427,635.5C 436.529,634.84 446.029,633.84 455.5,632.5C 457.786,632.405 459.786,631.738 461.5,630.5C 468.046,628.729 474.712,627.062 481.5,625.5C 485.475,625.514 488.808,624.181 491.5,621.5C 492.5,621.5 493.5,621.5 494.5,621.5C 494.735,622.097 495.235,622.43 496,622.5C 500.479,620.005 505.313,618.505 510.5,618C 511.056,617.617 511.389,617.117 511.5,616.5C 511.842,615.662 512.508,615.328 513.5,615.5C 514.583,615.539 515.583,615.873 516.5,616.5C 519.021,615.312 521.355,613.978 523.5,612.5C 530.243,610.676 536.909,609.009 543.5,607.5C 545.441,607.131 547.275,606.464 549,605.5C 550.313,606.287 551.48,605.954 552.5,604.5C 554.374,603.715 556.374,603.048 558.5,602.5C 560.898,602.741 562.898,602.074 564.5,600.5C 567.511,599.331 570.178,597.664 572.5,595.5C 573.167,595.5 573.5,595.167 573.5,594.5C 574.496,594.414 575.329,594.748 576,595.5C 578.721,591.986 581.888,591.653 585.5,594.5C 589.77,594.232 594.104,594.066 598.5,594C 605.674,591.369 613.008,589.036 620.5,587C 621.71,585.961 622.71,584.794 623.5,583.5 Z"/></g>
<g><path style="opacity:1" fill="#3c3732" d="M 573.5,594.5 C 573.5,595.167 573.167,595.5 572.5,595.5C 571.666,594.252 570.333,593.585 568.5,593.5C 565.753,592.781 563.086,592.781 560.5,593.5C 555.623,591.384 550.623,591.217 545.5,593C 541.472,595.699 541.805,596.532 546.5,595.5C 547.192,596.025 547.692,596.692 548,597.5C 548.333,597.167 548.667,596.833 549,596.5C 549.684,597.784 549.517,598.951 548.5,600C 546.481,599.848 544.481,599.348 542.5,598.5C 542.5,599.5 542.5,600.5 542.5,601.5C 541.5,601.5 540.5,601.5 539.5,601.5C 539.187,598.428 539.854,595.595 541.5,593C 541.355,592.228 541.022,591.561 540.5,591C 534.661,589.305 528.995,589.805 523.5,592.5C 523.953,591.542 524.619,590.708 525.5,590C 529.727,589.256 533.894,588.422 538,587.5C 539.972,589.442 542.139,589.776 544.5,588.5C 546.384,592.017 548.717,592.351 551.5,589.5C 557.573,590.972 563.74,591.972 570,592.5C 571.681,592.608 572.848,593.275 573.5,594.5 Z"/></g>
<g><path style="opacity:1" fill="#dee2e5" d="M 716.5,590.5 C 724.634,590.411 726.634,593.911 722.5,601C 719.259,602.242 716.259,603.909 713.5,606C 705.952,606.599 698.618,607.932 691.5,610C 684.902,614.086 677.569,616.419 669.5,617C 668.833,617.667 668.167,618.333 667.5,619C 660.61,621.08 653.61,623.08 646.5,625C 645.833,625.667 645.167,626.333 644.5,627C 638.456,627.742 632.456,628.742 626.5,630C 620.775,633.732 614.442,635.732 607.5,636C 605.156,636.837 603.156,638.171 601.5,640C 591.167,642.333 580.833,644.667 570.5,647C 567.569,649.515 564.236,651.181 560.5,652C 554.304,651.637 548.638,652.97 543.5,656C 537.165,655.853 531.165,657.02 525.5,659.5C 519.067,659.739 512.567,659.406 506,658.5C 501.652,661.075 497.318,661.075 493,658.5C 488.963,661.017 484.963,661.017 481,658.5C 475.667,659.833 470.333,659.833 465,658.5C 460.572,660.784 456.072,660.784 451.5,658.5C 445.034,659.419 438.7,660.086 432.5,660.5C 427.92,658.417 423.253,658.417 418.5,660.5C 411.173,658.094 404.007,658.427 397,661.5C 395.177,659.833 393.01,658.833 390.5,658.5C 386.541,659.188 382.708,659.188 379,658.5C 374.364,658.927 369.864,659.927 365.5,661.5C 361.86,659.997 358.026,658.997 354,658.5C 351.036,658.883 348.37,659.883 346,661.5C 342.526,659.951 338.859,658.951 335,658.5C 333.667,659.167 332.333,659.833 331,660.5C 325.819,659.858 320.652,659.192 315.5,658.5C 314.784,659.311 313.95,659.978 313,660.5C 308.575,657.956 304.075,657.956 299.5,660.5C 292.004,659.185 284.504,659.185 277,660.5C 271.607,659.262 266.273,658.596 261,658.5C 259.667,659.167 258.333,659.833 257,660.5C 256,659.833 255,659.167 254,658.5C 252.832,659.509 251.665,660.509 250.5,661.5C 249.071,660.065 247.405,659.065 245.5,658.5C 236.29,659.71 227.123,659.71 218,658.5C 216.128,659.068 214.295,659.735 212.5,660.5C 210.689,659.264 208.856,659.264 207,660.5C 205.715,660.05 204.548,659.383 203.5,658.5C 198.529,659.717 193.529,659.717 188.5,658.5C 185.703,659.314 182.87,659.981 180,660.5C 177.855,660.604 176.021,659.937 174.5,658.5C 172.167,659.167 169.833,659.833 167.5,660.5C 161.54,660.539 155.54,659.873 149.5,658.5C 147.303,659.066 145.136,659.732 143,660.5C 134.374,660.69 125.707,660.356 117,659.5C 113.167,659.667 109.333,659.833 105.5,660C 104.975,660.692 104.308,661.192 103.5,661.5C 95.9246,658.568 88.2579,658.235 80.5,660.5C 73.0395,660.193 65.5395,660.193 58,660.5C 51.9969,659.164 45.9969,658.83 40,659.5C 38.5643,659.441 37.231,659.108 36,658.5C 35.2652,656.129 34.4318,653.795 33.5,651.5C 36.3362,647.635 40.0028,646.635 44.5,648.5C 46.9404,646.078 49.2737,646.078 51.5,648.5C 52.5,647.833 53.5,647.167 54.5,646.5C 58.3197,647.799 62.1531,647.799 66,646.5C 67.2853,646.95 68.452,647.617 69.5,648.5C 72.4451,647.877 75.4451,647.544 78.5,647.5C 82.5289,647.32 86.3622,647.986 90,649.5C 91.0616,648.101 92.395,647.101 94,646.5C 97.3333,647.833 100.667,647.833 104,646.5C 106.62,647.206 109.12,648.206 111.5,649.5C 116.92,646.334 122.253,646.334 127.5,649.5C 130.833,648.5 134.167,647.5 137.5,646.5C 140.08,648.994 142.747,648.994 145.5,646.5C 148.08,648.994 150.747,648.994 153.5,646.5C 179.512,647.159 205.512,647.159 231.5,646.5C 234.735,647.031 237.902,647.698 241,648.5C 242,647.833 243,647.167 244,646.5C 245.695,647.157 247.528,647.157 249.5,646.5C 251.5,647.167 253.5,647.833 255.5,648.5C 259.576,646.833 263.41,647.166 267,649.5C 268.059,649.37 268.892,648.87 269.5,648C 276.037,647.776 282.537,647.276 289,646.5C 291.848,647.783 294.682,647.783 297.5,646.5C 301.71,646.922 305.71,647.922 309.5,649.5C 310.603,647.896 312.103,646.896 314,646.5C 317.517,647.127 321.017,647.793 324.5,648.5C 326.167,647.167 327.833,647.167 329.5,648.5C 330.941,647.696 332.441,647.029 334,646.5C 337.465,647.328 340.965,647.994 344.5,648.5C 351.052,646.627 357.719,646.127 364.5,647C 365.025,647.692 365.692,648.192 366.5,648.5C 368.192,647.031 370.192,646.365 372.5,646.5C 383.019,647.103 393.519,647.77 404,648.5C 405.468,647.372 407.135,646.706 409,646.5C 417.578,647.216 426.244,647.216 435,646.5C 436.813,646.827 438.48,647.493 440,648.5C 445.493,647.084 451.327,646.417 457.5,646.5C 466.19,647.456 474.856,647.456 483.5,646.5C 485.392,647.473 487.392,648.14 489.5,648.5C 499.047,647.406 508.714,647.239 518.5,648C 538.031,642.959 557.698,638.292 577.5,634C 578.047,633.075 578.713,632.242 579.5,631.5C 585.849,628.944 592.516,627.444 599.5,627C 605.666,625.209 611.666,623.209 617.5,621C 618.09,619.701 619.09,618.868 620.5,618.5C 628.516,616.465 636.516,614.632 644.5,613C 645.551,611.615 646.884,610.615 648.5,610C 653.793,608.791 659.126,607.791 664.5,607C 666.393,604.443 668.727,603.943 671.5,605.5C 681.979,601.474 692.645,597.974 703.5,595C 704.167,594.333 704.833,593.667 705.5,593C 709.43,592.758 713.097,591.925 716.5,590.5 Z"/></g>
<g><path style="opacity:0.989" fill="#adb7bf" d="M 678.5,570.5 C 697.597,570.564 716.931,571.064 736.5,572C 738.715,574.871 741.549,577.037 745,578.5C 746.167,580 747.333,581.5 748.5,583C 748.167,583.333 747.833,583.667 747.5,584C 748.392,587.959 749.726,591.792 751.5,595.5C 750.833,597.833 750.167,600.167 749.5,602.5C 752.718,624.222 743.718,638.055 722.5,644C 720.888,644.72 719.388,644.554 718,643.5C 717,645.167 715.667,646.5 714,647.5C 710.983,647.508 707.983,647.508 705,647.5C 701.896,648.702 699.063,650.368 696.5,652.5C 693.949,652.937 691.282,652.937 688.5,652.5C 677.078,656.378 665.745,660.378 654.5,664.5C 653.833,664.167 653.167,663.833 652.5,663.5C 649.22,664.558 646.22,666.058 643.5,668C 641.888,668.72 640.388,668.554 639,667.5C 634.088,670.077 629.088,672.41 624,674.5C 621.455,674.257 618.955,674.257 616.5,674.5C 615.167,675.5 613.833,676.5 612.5,677.5C 610.329,677.273 608.162,676.94 606,676.5C 602.784,679.857 598.95,681.19 594.5,680.5C 582.728,685.811 570.395,689.644 557.5,692C 553.941,694.566 549.941,696.232 545.5,697C 534.209,698.828 522.876,700.328 511.5,701.5C 497.265,700.997 483.098,700.663 469,700.5C 467.105,700.615 465.438,701.282 464,702.5C 461.782,701.528 459.449,700.861 457,700.5C 430.381,701.416 403.547,701.416 376.5,700.5C 375.252,701.04 374.085,701.707 373,702.5C 369.208,701.44 365.374,700.44 361.5,699.5C 360.186,700.313 359.019,701.313 358,702.5C 357.311,701.643 356.478,700.977 355.5,700.5C 303.877,700.452 252.377,700.785 201,701.5C 199.527,701.097 198.194,700.43 197,699.5C 194.026,701.521 190.86,701.521 187.5,699.5C 186.452,700.383 185.285,701.05 184,701.5C 163.458,701.778 142.625,701.444 121.5,700.5C 116.635,701.142 111.801,701.808 107,702.5C 105.215,701.76 103.382,701.093 101.5,700.5C 92.0719,701.23 82.7385,701.23 73.5,700.5C 70.6973,702.425 67.6973,702.425 64.5,700.5C 62.3561,701.953 60.5227,701.62 59,699.5C 57.9805,700.687 56.8139,701.687 55.5,702.5C 54.3122,701.16 52.8122,700.493 51,700.5C 41.4987,701.521 32.1654,701.521 23,700.5C 15.8236,698.13 10.8236,693.464 8,686.5C 6.39212,679.065 5.22545,671.732 4.5,664.5C 5.39384,657.917 6.89384,651.25 9,644.5C 13.0825,638.747 18.0825,634.081 24,630.5C 25,630.833 26,631.167 27,631.5C 29.5618,629.485 32.3951,627.985 35.5,627C 45.1523,626.329 54.1523,623.663 62.5,619C 73.7732,616.977 84.6066,613.811 95,609.5C 95.772,609.645 96.4387,609.978 97,610.5C 104.893,607.36 112.559,604.36 120,601.5C 120.333,601.833 120.667,602.167 121,602.5C 131.607,598.799 142.441,595.799 153.5,593.5C 155.201,597.277 156.534,601.277 157.5,605.5C 152.96,606.82 148.294,607.653 143.5,608C 141.668,608.748 140.001,609.748 138.5,611C 131.15,611.828 124.483,614.328 118.5,618.5C 116.902,617.515 115.235,617.349 113.5,618C 99.4093,622.245 85.4093,626.911 71.5,632C 63.0436,634.613 54.3769,636.613 45.5,638C 43.714,638.785 42.214,639.951 41,641.5C 27.5417,641.11 20.0417,647.777 18.5,661.5C 19.8015,666.007 19.8015,670.507 18.5,675C 20.2519,679.171 22.2519,683.171 24.5,687C 39.3657,687.809 54.1991,687.642 69,686.5C 74.4914,687.192 79.9914,687.859 85.5,688.5C 98.8831,688.038 112.216,688.038 125.5,688.5C 127.167,687.833 128.833,687.167 130.5,686.5C 134.995,687.797 139.495,687.797 144,686.5C 145.404,686.509 146.57,687.009 147.5,688C 153.1,688.302 158.6,688.468 164,688.5C 167.676,686.501 171.176,686.501 174.5,688.5C 187.832,687.767 201.332,687.767 215,688.5C 216.285,688.05 217.452,687.383 218.5,686.5C 223.347,689.004 228.181,689.004 233,686.5C 240.333,688.204 247.666,688.871 255,688.5C 259.235,686.515 263.569,685.848 268,686.5C 269.667,687.167 271.333,687.833 273,688.5C 275,687.167 277,687.167 279,688.5C 280.468,687.372 282.135,686.706 284,686.5C 289.933,688.488 295.933,689.155 302,688.5C 305.644,687.741 309.311,687.074 313,686.5C 328.606,687.187 344.106,687.187 359.5,686.5C 362.807,687.295 366.141,687.961 369.5,688.5C 377.841,688.446 386.175,688.446 394.5,688.5C 408.551,687.443 422.551,686.776 436.5,686.5C 438.95,686.761 441.283,687.428 443.5,688.5C 451.709,687.757 459.876,687.757 468,688.5C 481.455,686.587 494.455,685.92 507,686.5C 513.232,687.802 519.398,688.469 525.5,688.5C 527.002,687.917 528.335,687.084 529.5,686C 535.962,684.801 542.295,683.135 548.5,681C 556.174,680.538 563.507,678.204 570.5,674C 576.714,674.122 582.048,672.122 586.5,668C 592.957,667.722 599.29,666.722 605.5,665C 606.376,663.415 607.709,662.415 609.5,662C 623.058,658.486 636.725,655.153 650.5,652C 656.949,649.52 663.282,646.853 669.5,644C 672.956,644.093 675.956,643.093 678.5,641C 684.342,639.283 690.342,637.949 696.5,637C 698.055,634.535 700.055,634.035 702.5,635.5C 706.349,632.622 710.683,630.789 715.5,630C 721.912,629.377 727.745,627.21 733,623.5C 733.729,620.233 735.229,617.4 737.5,615C 736.372,613.532 735.706,611.865 735.5,610C 736.546,604.528 736.712,599.028 736,593.5C 735.619,589.635 733.785,586.801 730.5,585C 719.187,583.719 707.854,583.886 696.5,585.5C 688.112,583.242 679.779,583.242 671.5,585.5C 666.776,583.52 661.943,583.52 657,585.5C 655.715,585.05 654.548,584.383 653.5,583.5C 650.198,584.258 646.865,584.925 643.5,585.5C 639.167,584.167 634.833,584.167 630.5,585.5C 628.423,584.063 626.09,583.396 623.5,583.5C 627.132,580.263 629.799,576.263 631.5,571.5C 634.833,571.5 638.167,571.5 641.5,571.5C 642.912,572.533 644.578,573.199 646.5,573.5C 650.002,572.989 653.335,572.322 656.5,571.5C 657.5,571.5 658.5,571.5 659.5,571.5C 664.31,572.859 669.31,573.859 674.5,574.5C 676.375,573.591 677.708,572.257 678.5,570.5 Z"/></g>
<g><path style="opacity:1" fill="#939698" d="M 400.5,634.5 C 403.362,633.319 406.362,633.319 409.5,634.5C 406.656,635.551 403.656,635.551 400.5,634.5 Z"/></g>
<g><path style="opacity:1" fill="#959799" d="M 170.5,631.5 C 172.84,632.086 175.007,633.086 177,634.5C 178.292,633.209 179.458,633.209 180.5,634.5C 177.887,635.435 175.221,635.602 172.5,635C 171.695,633.887 171.028,632.721 170.5,631.5 Z"/></g>
<g><path style="opacity:1" fill="#6e7275" d="M 230.5,633.5 C 230.917,632.876 231.584,632.543 232.5,632.5C 237.656,633.068 242.656,633.735 247.5,634.5C 241.741,634.786 236.075,634.452 230.5,633.5 Z"/></g>
<g><path style="opacity:1" fill="#9ea0a2" d="M 461.5,630.5 C 459.786,631.738 457.786,632.405 455.5,632.5C 456.99,630.72 458.99,630.054 461.5,630.5 Z"/></g>
<g><path style="opacity:1" fill="#b1b3b5" d="M 491.5,621.5 C 488.808,624.181 485.475,625.514 481.5,625.5C 484.27,623.059 487.603,621.726 491.5,621.5 Z"/></g>
<g><path style="opacity:1" fill="#181c20" d="M 182.5,615.5 C 185.156,616.158 187.822,616.825 190.5,617.5C 193.737,615.933 196.737,616.266 199.5,618.5C 203.013,617.879 206.513,617.213 210,616.5C 213.158,617.781 216.324,617.781 219.5,616.5C 221.104,616.939 222.604,617.606 224,618.5C 228.667,617.833 233.333,617.167 238,616.5C 246.269,617.531 254.436,617.531 262.5,616.5C 265.001,618.647 267.668,618.647 270.5,616.5C 274.71,616.922 278.71,617.922 282.5,619.5C 286.293,617.173 290.46,616.173 295,616.5C 297.167,616.833 299.333,617.167 301.5,617.5C 301.887,618.72 302.72,619.387 304,619.5C 305.136,618.217 306.469,617.217 308,616.5C 313.107,616.714 318.274,616.88 323.5,617C 324.416,617.374 325.25,617.874 326,618.5C 330.289,617.219 334.623,617.219 339,618.5C 342.644,617.741 346.311,617.074 350,616.5C 355.858,617.765 361.691,617.765 367.5,616.5C 368.611,617.611 369.945,618.278 371.5,618.5C 379.504,616.722 387.504,616.055 395.5,616.5C 404.429,619.149 413.096,618.816 421.5,615.5C 423.601,616.592 425.768,617.592 428,618.5C 430.737,617.39 433.571,617.223 436.5,618C 438.425,620.868 438.425,623.535 436.5,626C 433.139,626.337 429.806,626.837 426.5,627.5C 424.813,627.24 423.313,626.573 422,625.5C 416.892,626.704 411.725,626.704 406.5,625.5C 398.716,627.608 390.883,627.608 383,625.5C 374.805,626.753 366.638,626.753 358.5,625.5C 357.5,626.167 356.5,626.833 355.5,627.5C 351.22,625.08 346.887,625.08 342.5,627.5C 340.024,626.771 337.524,626.104 335,625.5C 329.727,628.004 324.56,628.004 319.5,625.5C 315.906,627.959 312.406,627.959 309,625.5C 307.532,626.628 305.865,627.294 304,627.5C 299.601,626.962 295.267,626.296 291,625.5C 287.66,627.365 284.493,627.365 281.5,625.5C 273.09,626.665 264.756,626.665 256.5,625.5C 254.945,625.722 253.611,626.389 252.5,627.5C 245.895,625.46 239.228,625.46 232.5,627.5C 228.12,625.027 223.62,625.027 219,627.5C 216.069,627.225 213.235,626.559 210.5,625.5C 202.834,627.074 195.167,627.741 187.5,627.5C 181.755,625.564 176.088,625.564 170.5,627.5C 168.77,626.974 167.436,625.974 166.5,624.5C 167.189,622.556 167.689,620.556 168,618.5C 169.865,616.327 172.031,615.993 174.5,617.5C 177.311,616.92 179.977,616.254 182.5,615.5 Z"/></g>
<g><path style="opacity:1" fill="#b6b8ba" d="M 511.5,616.5 C 511.389,617.117 511.056,617.617 510.5,618C 505.313,618.505 500.479,620.005 496,622.5C 495.235,622.43 494.735,622.097 494.5,621.5C 499.697,618.463 505.364,616.796 511.5,616.5 Z"/></g>
<g><path style="opacity:1" fill="#8e9194" d="M 523.5,612.5 C 521.355,613.978 519.021,615.312 516.5,616.5C 515.583,615.873 514.583,615.539 513.5,615.5C 513.611,614.883 513.944,614.383 514.5,614C 517.544,613.637 520.544,613.137 523.5,612.5 Z"/></g>
<g><path style="opacity:1" fill="#9ea0a2" d="M 159.5,610.5 C 161.654,612.158 161.987,614.158 160.5,616.5C 159.522,616.189 158.855,615.522 158.5,614.5C 159.246,613.264 159.579,611.93 159.5,610.5 Z"/></g>
<g><path style="opacity:1" fill="#a7a9ab" d="M 552.5,604.5 C 551.48,605.954 550.313,606.287 549,605.5C 547.275,606.464 545.441,607.131 543.5,607.5C 543.953,606.542 544.619,605.708 545.5,605C 547.81,604.503 550.143,604.337 552.5,604.5 Z"/></g>
<g><path style="opacity:1" fill="#a3a5a7" d="M 564.5,600.5 C 562.898,602.074 560.898,602.741 558.5,602.5C 559.918,600.692 561.918,600.025 564.5,600.5 Z"/></g>
<g><path style="opacity:1" fill="#578574" d="M 641.5,571.5 C 646.5,571.5 651.5,571.5 656.5,571.5C 653.335,572.322 650.002,572.989 646.5,573.5C 644.578,573.199 642.912,572.533 641.5,571.5 Z"/></g>
</svg>
